<svg width="1016" height="511" viewBox="0 0 1016 511" fill="none" xmlns="http://www.w3.org/2000/svg">
<g clip-path="url(#clip0)">
<rect x="188" y="32" width="82" height="446" fill="white" stroke="black" stroke-width="2"/>
<rect x="188" y="79" width="82" height="19" fill="#C4C4C4" stroke="black" stroke-width="2"/>
<rect x="188" y="190" width="82" height="19" fill="#C4C4C4" stroke="black" stroke-width="2"/>
<rect x="188" y="302" width="82" height="19" fill="#C4C4C4" stroke="black" stroke-width="2"/>
<rect x="188" y="413" width="82" height="19" fill="#C4C4C4" stroke="black" stroke-width="2"/>
<rect x="196.156" y="330.328" width="13.0625" height="13.0625" fill="white" stroke="black"/>
<rect x="213.734" y="330.328" width="13.0625" height="13.0625" fill="white" stroke="black"/>
<rect x="231.312" y="330.328" width="13.0625" height="13.0625" fill="white" stroke="black"/>
<rect x="248.891" y="330.328" width="13.0625" height="13.0625" fill="white" stroke="black"/>
<rect x="196.156" y="347.906" width="13.0625" height="13.0625" fill="white" stroke="black"/>
<rect x="213.734" y="347.906" width="13.0625" height="13.0625" fill="white" stroke="black"/>
<rect x="231.312" y="347.906" width="13.0625" height="13.0625" fill="white" stroke="black"/>
<rect x="248.891" y="347.906" width="13.0625" height="13.0625" fill="white" stroke="black"/>
<rect x="196.156" y="365.484" width="13.0625" height="13.0625" fill="white" stroke="black"/>
<rect x="213.734" y="365.484" width="13.0625" height="13.0625" fill="white" stroke="black"/>
<rect x="231.312" y="365.484" width="13.0625" height="13.0625" fill="white" stroke="black"/>
<rect x="248.891" y="365.484" width="13.0625" height="13.0625" fill="white" stroke="black"/>
<rect x="196.156" y="383.062" width="13.0625" height="13.0625" fill="white" stroke="black"/>
<rect x="213.734" y="383.062" width="13.0625" height="13.0625" fill="white" stroke="black"/>
<rect x="231.312" y="383.062" width="13.0625" height="13.0625" fill="white" stroke="black"/>
<rect x="248.891" y="383.062" width="13.0625" height="13.0625" fill="white" stroke="black"/>
<rect x="196.156" y="222.516" width="13.0625" height="13.0625" fill="white" stroke="black"/>
<rect x="213.734" y="222.516" width="13.0625" height="13.0625" fill="white" stroke="black"/>
<rect x="231.312" y="222.516" width="13.0625" height="13.0625" fill="white" stroke="black"/>
<rect x="248.891" y="222.516" width="13.0625" height="13.0625" fill="white" stroke="black"/>
<rect x="196.156" y="240.094" width="13.0625" height="13.0625" fill="white" stroke="black"/>
<rect x="213.734" y="240.094" width="13.0625" height="13.0625" fill="white" stroke="black"/>
<rect x="231.312" y="240.094" width="13.0625" height="13.0625" fill="white" stroke="black"/>
<rect x="248.891" y="240.094" width="13.0625" height="13.0625" fill="white" stroke="black"/>
<rect x="196.156" y="257.672" width="13.0625" height="13.0625" fill="white" stroke="black"/>
<rect x="213.734" y="257.672" width="13.0625" height="13.0625" fill="white" stroke="black"/>
<rect x="231.312" y="257.672" width="13.0625" height="13.0625" fill="white" stroke="black"/>
<rect x="248.891" y="257.672" width="13.0625" height="13.0625" fill="white" stroke="black"/>
<rect x="196.156" y="275.25" width="13.0625" height="13.0625" fill="white" stroke="black"/>
<rect x="213.734" y="275.25" width="13.0625" height="13.0625" fill="white" stroke="black"/>
<rect x="231.312" y="275.25" width="13.0625" height="13.0625" fill="white" stroke="black"/>
<rect x="248.891" y="275.25" width="13.0625" height="13.0625" fill="white" stroke="black"/>
<rect x="196.156" y="114.703" width="13.0625" height="13.0625" fill="white" stroke="black"/>
<rect x="213.734" y="114.703" width="13.0625" height="13.0625" fill="white" stroke="black"/>
<rect x="231.312" y="114.703" width="13.0625" height="13.0625" fill="white" stroke="black"/>
<rect x="248.891" y="114.703" width="13.0625" height="13.0625" fill="white" stroke="black"/>
<rect x="196.156" y="132.281" width="13.0625" height="13.0625" fill="white" stroke="black"/>
<rect x="213.734" y="132.281" width="13.0625" height="13.0625" fill="white" stroke="black"/>
<rect x="231.312" y="132.281" width="13.0625" height="13.0625" fill="white" stroke="black"/>
<rect x="248.891" y="132.281" width="13.0625" height="13.0625" fill="white" stroke="black"/>
<rect x="196.156" y="149.859" width="13.0625" height="13.0625" fill="white" stroke="black"/>
<rect x="213.734" y="149.859" width="13.0625" height="13.0625" fill="white" stroke="black"/>
<rect x="231.312" y="149.859" width="13.0625" height="13.0625" fill="white" stroke="black"/>
<rect x="248.891" y="149.859" width="13.0625" height="13.0625" fill="white" stroke="black"/>
<rect x="196.156" y="167.438" width="13.0625" height="13.0625" fill="white" stroke="black"/>
<rect x="213.734" y="167.438" width="13.0625" height="13.0625" fill="white" stroke="black"/>
<rect x="231.312" y="167.438" width="13.0625" height="13.0625" fill="white" stroke="black"/>
<rect x="248.891" y="167.438" width="13.0625" height="13.0625" fill="white" stroke="black"/>
<rect x="196.156" y="438.141" width="13.0625" height="13.0625" fill="white" stroke="black"/>
<rect x="213.734" y="438.141" width="13.0625" height="13.0625" fill="white" stroke="black"/>
<rect x="231.312" y="438.141" width="13.0625" height="13.0625" fill="white" stroke="black"/>
<rect x="248.891" y="438.141" width="13.0625" height="13.0625" fill="white" stroke="black"/>
<rect x="196.156" y="455.719" width="13.0625" height="13.0625" fill="white" stroke="black"/>
<rect x="213.734" y="455.719" width="13.0625" height="13.0625" fill="white" stroke="black"/>
<rect x="231.312" y="455.719" width="13.0625" height="13.0625" fill="white" stroke="black"/>
<rect x="248.891" y="455.719" width="13.0625" height="13.0625" fill="white" stroke="black"/>
<rect x="196.5" y="42.5" width="13" height="13" fill="white" stroke="black"/>
<rect x="213.5" y="42.5" width="13" height="13" fill="white" stroke="black"/>
<rect x="231.5" y="42.5" width="13" height="13" fill="white" stroke="black"/>
<rect x="248.5" y="42.5" width="13" height="13" fill="white" stroke="black"/>
<rect x="196.5" y="59.5" width="13" height="13" fill="white" stroke="black"/>
<rect x="213.5" y="59.5" width="13" height="13" fill="white" stroke="black"/>
<rect x="231.5" y="59.5" width="13" height="13" fill="white" stroke="black"/>
<rect x="248.5" y="59.5" width="13" height="13" fill="white" stroke="black"/>
<path d="M282 422L382 292.921M282 318.296L382 271" stroke="black"/>
<path d="M278 200L383 255" stroke="black"/>
<path d="M278 88L384 231" stroke="black"/>
<path d="M408.268 248.265C408.268 248.774 408.147 249.278 407.907 249.776C407.673 250.274 407.342 250.696 406.914 251.042C406.445 251.417 405.897 251.71 405.271 251.921C404.649 252.132 403.899 252.237 403.021 252.237C402.077 252.237 401.228 252.149 400.472 251.974C399.722 251.798 398.957 251.537 398.178 251.191V249.012H398.301C398.963 249.562 399.728 249.987 400.595 250.286C401.462 250.585 402.276 250.734 403.038 250.734C404.116 250.734 404.954 250.532 405.552 250.128C406.155 249.724 406.457 249.185 406.457 248.511C406.457 247.931 406.313 247.503 406.026 247.228C405.745 246.952 405.314 246.738 404.734 246.586C404.295 246.469 403.817 246.372 403.302 246.296C402.792 246.22 402.25 246.123 401.676 246.006C400.516 245.76 399.654 245.341 399.092 244.749C398.535 244.151 398.257 243.375 398.257 242.42C398.257 241.324 398.72 240.428 399.646 239.73C400.571 239.027 401.746 238.676 403.17 238.676C404.09 238.676 404.934 238.764 405.701 238.939C406.469 239.115 407.148 239.332 407.74 239.59V241.646H407.617C407.119 241.225 406.463 240.876 405.648 240.601C404.84 240.319 404.011 240.179 403.161 240.179C402.229 240.179 401.479 240.372 400.911 240.759C400.349 241.146 400.067 241.644 400.067 242.253C400.067 242.798 400.208 243.226 400.489 243.536C400.771 243.847 401.266 244.084 401.975 244.248C402.35 244.33 402.883 244.43 403.574 244.547C404.266 244.664 404.852 244.784 405.332 244.907C406.305 245.165 407.037 245.555 407.529 246.076C408.021 246.598 408.268 247.327 408.268 248.265ZM419.14 252H417.487V246.41C417.487 245.959 417.461 245.537 417.408 245.145C417.355 244.746 417.259 244.436 417.118 244.213C416.972 243.967 416.761 243.785 416.485 243.668C416.21 243.545 415.853 243.483 415.413 243.483C414.962 243.483 414.49 243.595 413.998 243.817C413.506 244.04 413.034 244.324 412.583 244.67V252H410.931V238.324H412.583V243.272C413.099 242.845 413.632 242.511 414.183 242.271C414.733 242.03 415.299 241.91 415.879 241.91C416.939 241.91 417.748 242.229 418.305 242.868C418.861 243.507 419.14 244.427 419.14 245.628V252ZM430.688 247.096C430.688 248.695 430.278 249.958 429.458 250.884C428.638 251.81 427.539 252.272 426.162 252.272C424.773 252.272 423.669 251.81 422.849 250.884C422.034 249.958 421.627 248.695 421.627 247.096C421.627 245.496 422.034 244.233 422.849 243.308C423.669 242.376 424.773 241.91 426.162 241.91C427.539 241.91 428.638 242.376 429.458 243.308C430.278 244.233 430.688 245.496 430.688 247.096ZM428.983 247.096C428.983 245.824 428.734 244.881 428.236 244.266C427.738 243.645 427.047 243.334 426.162 243.334C425.266 243.334 424.568 243.645 424.07 244.266C423.578 244.881 423.332 245.824 423.332 247.096C423.332 248.326 423.581 249.261 424.079 249.899C424.577 250.532 425.271 250.849 426.162 250.849C427.041 250.849 427.729 250.535 428.228 249.908C428.731 249.275 428.983 248.338 428.983 247.096ZM441.895 246.973C441.895 247.77 441.78 248.499 441.552 249.161C441.323 249.817 441.001 250.374 440.585 250.831C440.198 251.265 439.741 251.602 439.214 251.842C438.692 252.076 438.139 252.193 437.553 252.193C437.043 252.193 436.58 252.138 436.164 252.026C435.754 251.915 435.335 251.742 434.907 251.508V255.621H433.255V242.183H434.907V243.211C435.347 242.842 435.839 242.534 436.384 242.288C436.935 242.036 437.521 241.91 438.142 241.91C439.325 241.91 440.245 242.358 440.901 243.255C441.563 244.146 441.895 245.385 441.895 246.973ZM440.189 247.017C440.189 245.833 439.987 244.948 439.583 244.362C439.179 243.776 438.558 243.483 437.72 243.483C437.245 243.483 436.768 243.586 436.287 243.791C435.807 243.996 435.347 244.266 434.907 244.6V250.163C435.376 250.374 435.777 250.518 436.111 250.594C436.451 250.67 436.835 250.708 437.263 250.708C438.183 250.708 438.9 250.397 439.416 249.776C439.932 249.155 440.189 248.235 440.189 247.017ZM451.483 249.17C451.483 250.066 451.111 250.802 450.367 251.376C449.629 251.95 448.618 252.237 447.335 252.237C446.608 252.237 445.94 252.152 445.331 251.982C444.728 251.807 444.221 251.616 443.811 251.411V249.557H443.898C444.42 249.949 445 250.263 445.639 250.497C446.277 250.726 446.89 250.84 447.476 250.84C448.202 250.84 448.771 250.723 449.181 250.488C449.591 250.254 449.796 249.885 449.796 249.381C449.796 248.994 449.685 248.701 449.462 248.502C449.239 248.303 448.812 248.133 448.179 247.992C447.944 247.939 447.637 247.878 447.256 247.808C446.881 247.737 446.538 247.661 446.228 247.579C445.366 247.351 444.754 247.017 444.391 246.577C444.033 246.132 443.854 245.587 443.854 244.942C443.854 244.538 443.937 244.157 444.101 243.8C444.271 243.442 444.525 243.123 444.865 242.842C445.193 242.566 445.609 242.35 446.113 242.191C446.623 242.027 447.191 241.945 447.818 241.945C448.404 241.945 448.996 242.019 449.594 242.165C450.197 242.306 450.698 242.479 451.097 242.684V244.45H451.009C450.587 244.14 450.074 243.879 449.471 243.668C448.867 243.451 448.275 243.343 447.695 243.343C447.092 243.343 446.582 243.46 446.166 243.694C445.75 243.923 445.542 244.266 445.542 244.723C445.542 245.127 445.668 245.432 445.92 245.637C446.166 245.842 446.564 246.009 447.115 246.138C447.42 246.208 447.76 246.278 448.135 246.349C448.516 246.419 448.832 246.483 449.084 246.542C449.852 246.718 450.443 247.02 450.859 247.447C451.275 247.881 451.483 248.455 451.483 249.17ZM457.284 249.495L454.806 255.252H453.522L455.052 249.495H457.284ZM409.586 274H407.327L402.95 268.797H400.498V274H398.758V260.913H402.423C403.214 260.913 403.873 260.966 404.4 261.071C404.928 261.171 405.402 261.353 405.824 261.616C406.299 261.915 406.668 262.293 406.932 262.75C407.201 263.201 407.336 263.775 407.336 264.473C407.336 265.416 407.099 266.207 406.624 266.846C406.149 267.479 405.496 267.956 404.664 268.278L409.586 274ZM405.517 264.596C405.517 264.221 405.449 263.89 405.314 263.603C405.186 263.31 404.969 263.063 404.664 262.864C404.412 262.694 404.113 262.577 403.768 262.513C403.422 262.442 403.015 262.407 402.546 262.407H400.498V267.347H402.256C402.807 267.347 403.287 267.3 403.697 267.206C404.107 267.106 404.456 266.925 404.743 266.661C405.007 266.415 405.2 266.134 405.323 265.817C405.452 265.495 405.517 265.088 405.517 264.596ZM419.359 269.263H412.126C412.126 269.866 412.217 270.394 412.398 270.845C412.58 271.29 412.829 271.656 413.146 271.943C413.45 272.225 413.811 272.436 414.227 272.576C414.648 272.717 415.111 272.787 415.615 272.787C416.283 272.787 416.954 272.655 417.628 272.392C418.308 272.122 418.791 271.858 419.078 271.601H419.166V273.402C418.609 273.637 418.041 273.833 417.461 273.991C416.881 274.149 416.271 274.229 415.633 274.229C414.004 274.229 412.732 273.789 411.818 272.91C410.904 272.025 410.447 270.771 410.447 269.148C410.447 267.543 410.884 266.269 411.757 265.325C412.636 264.382 413.79 263.91 415.22 263.91C416.544 263.91 417.563 264.297 418.278 265.07C418.999 265.844 419.359 266.942 419.359 268.366V269.263ZM417.751 267.997C417.745 267.13 417.525 266.459 417.092 265.984C416.664 265.51 416.011 265.272 415.132 265.272C414.247 265.272 413.541 265.533 413.014 266.055C412.492 266.576 412.196 267.224 412.126 267.997H417.751ZM428.878 271.17C428.878 272.066 428.506 272.802 427.762 273.376C427.023 273.95 426.013 274.237 424.729 274.237C424.003 274.237 423.335 274.152 422.726 273.982C422.122 273.807 421.615 273.616 421.205 273.411V271.557H421.293C421.814 271.949 422.395 272.263 423.033 272.497C423.672 272.726 424.284 272.84 424.87 272.84C425.597 272.84 426.165 272.723 426.575 272.488C426.985 272.254 427.19 271.885 427.19 271.381C427.19 270.994 427.079 270.701 426.856 270.502C426.634 270.303 426.206 270.133 425.573 269.992C425.339 269.939 425.031 269.878 424.65 269.808C424.275 269.737 423.933 269.661 423.622 269.579C422.761 269.351 422.148 269.017 421.785 268.577C421.428 268.132 421.249 267.587 421.249 266.942C421.249 266.538 421.331 266.157 421.495 265.8C421.665 265.442 421.92 265.123 422.26 264.842C422.588 264.566 423.004 264.35 423.508 264.191C424.018 264.027 424.586 263.945 425.213 263.945C425.799 263.945 426.391 264.019 426.988 264.165C427.592 264.306 428.093 264.479 428.491 264.684V266.45H428.403C427.981 266.14 427.469 265.879 426.865 265.668C426.262 265.451 425.67 265.343 425.09 265.343C424.486 265.343 423.977 265.46 423.561 265.694C423.145 265.923 422.937 266.266 422.937 266.723C422.937 267.127 423.062 267.432 423.314 267.637C423.561 267.842 423.959 268.009 424.51 268.138C424.814 268.208 425.154 268.278 425.529 268.349C425.91 268.419 426.227 268.483 426.479 268.542C427.246 268.718 427.838 269.02 428.254 269.447C428.67 269.881 428.878 270.455 428.878 271.17ZM436.349 273.912C436.038 273.994 435.698 274.062 435.329 274.114C434.966 274.167 434.641 274.193 434.354 274.193C433.352 274.193 432.59 273.924 432.068 273.385C431.547 272.846 431.286 271.981 431.286 270.792V265.571H430.17V264.183H431.286V261.361H432.938V264.183H436.349V265.571H432.938V270.045C432.938 270.561 432.95 270.965 432.974 271.258C432.997 271.545 433.079 271.814 433.22 272.066C433.349 272.301 433.524 272.474 433.747 272.585C433.976 272.69 434.321 272.743 434.784 272.743C435.054 272.743 435.335 272.705 435.628 272.629C435.921 272.547 436.132 272.479 436.261 272.427H436.349V273.912ZM445.981 274H444.338V272.954C444.191 273.054 443.992 273.194 443.74 273.376C443.494 273.552 443.254 273.692 443.02 273.798C442.744 273.933 442.428 274.044 442.07 274.132C441.713 274.226 441.294 274.272 440.813 274.272C439.929 274.272 439.179 273.979 438.563 273.394C437.948 272.808 437.641 272.061 437.641 271.152C437.641 270.408 437.799 269.808 438.115 269.351C438.438 268.888 438.895 268.524 439.486 268.261C440.084 267.997 440.802 267.818 441.64 267.725C442.478 267.631 443.377 267.561 444.338 267.514V267.259C444.338 266.884 444.271 266.573 444.136 266.327C444.007 266.081 443.819 265.888 443.573 265.747C443.339 265.612 443.058 265.521 442.729 265.475C442.401 265.428 442.059 265.404 441.701 265.404C441.268 265.404 440.784 265.463 440.251 265.58C439.718 265.691 439.167 265.855 438.599 266.072H438.511V264.394C438.833 264.306 439.299 264.209 439.908 264.104C440.518 263.998 441.118 263.945 441.71 263.945C442.401 263.945 443.002 264.004 443.512 264.121C444.027 264.232 444.473 264.426 444.848 264.701C445.217 264.971 445.498 265.319 445.691 265.747C445.885 266.175 445.981 266.705 445.981 267.338V274ZM444.338 271.583V268.85C443.834 268.879 443.239 268.923 442.554 268.981C441.874 269.04 441.335 269.125 440.937 269.236C440.462 269.371 440.078 269.582 439.785 269.869C439.492 270.15 439.346 270.54 439.346 271.038C439.346 271.601 439.516 272.025 439.855 272.312C440.195 272.594 440.714 272.734 441.411 272.734C441.991 272.734 442.521 272.623 443.002 272.4C443.482 272.172 443.928 271.899 444.338 271.583ZM457.302 274H455.649V272.91C455.093 273.35 454.56 273.687 454.05 273.921C453.54 274.155 452.978 274.272 452.362 274.272C451.331 274.272 450.528 273.959 449.954 273.332C449.38 272.699 449.093 271.773 449.093 270.555V264.183H450.745V269.772C450.745 270.271 450.769 270.698 450.815 271.056C450.862 271.407 450.962 271.709 451.114 271.961C451.272 272.219 451.478 272.406 451.729 272.523C451.981 272.641 452.348 272.699 452.828 272.699C453.256 272.699 453.722 272.588 454.226 272.365C454.735 272.143 455.21 271.858 455.649 271.513V264.183H457.302V274ZM466.68 265.984H466.592C466.346 265.926 466.105 265.885 465.871 265.861C465.643 265.832 465.37 265.817 465.054 265.817C464.544 265.817 464.052 265.932 463.577 266.16C463.103 266.383 462.646 266.673 462.206 267.03V274H460.554V264.183H462.206V265.633C462.862 265.105 463.439 264.733 463.938 264.517C464.441 264.294 464.954 264.183 465.476 264.183C465.763 264.183 465.971 264.191 466.1 264.209C466.229 264.221 466.422 264.247 466.68 264.288V265.984ZM475.864 274H474.221V272.954C474.074 273.054 473.875 273.194 473.623 273.376C473.377 273.552 473.137 273.692 472.902 273.798C472.627 273.933 472.311 274.044 471.953 274.132C471.596 274.226 471.177 274.272 470.696 274.272C469.812 274.272 469.062 273.979 468.446 273.394C467.831 272.808 467.523 272.061 467.523 271.152C467.523 270.408 467.682 269.808 467.998 269.351C468.32 268.888 468.777 268.524 469.369 268.261C469.967 267.997 470.685 267.818 471.522 267.725C472.36 267.631 473.26 267.561 474.221 267.514V267.259C474.221 266.884 474.153 266.573 474.019 266.327C473.89 266.081 473.702 265.888 473.456 265.747C473.222 265.612 472.94 265.521 472.612 265.475C472.284 265.428 471.941 265.404 471.584 265.404C471.15 265.404 470.667 265.463 470.134 265.58C469.601 265.691 469.05 265.855 468.481 266.072H468.394V264.394C468.716 264.306 469.182 264.209 469.791 264.104C470.4 263.998 471.001 263.945 471.593 263.945C472.284 263.945 472.885 264.004 473.395 264.121C473.91 264.232 474.355 264.426 474.73 264.701C475.1 264.971 475.381 265.319 475.574 265.747C475.768 266.175 475.864 266.705 475.864 267.338V274ZM474.221 271.583V268.85C473.717 268.879 473.122 268.923 472.437 268.981C471.757 269.04 471.218 269.125 470.819 269.236C470.345 269.371 469.961 269.582 469.668 269.869C469.375 270.15 469.229 270.54 469.229 271.038C469.229 271.601 469.398 272.025 469.738 272.312C470.078 272.594 470.597 272.734 471.294 272.734C471.874 272.734 472.404 272.623 472.885 272.4C473.365 272.172 473.811 271.899 474.221 271.583ZM487.255 274H485.603V268.41C485.603 267.959 485.576 267.537 485.523 267.145C485.471 266.746 485.374 266.436 485.233 266.213C485.087 265.967 484.876 265.785 484.601 265.668C484.325 265.545 483.968 265.483 483.528 265.483C483.077 265.483 482.605 265.595 482.113 265.817C481.621 266.04 481.149 266.324 480.698 266.67V274H479.046V264.183H480.698V265.272C481.214 264.845 481.747 264.511 482.298 264.271C482.849 264.03 483.414 263.91 483.994 263.91C485.055 263.91 485.863 264.229 486.42 264.868C486.977 265.507 487.255 266.427 487.255 267.628V274ZM495.534 273.912C495.224 273.994 494.884 274.062 494.515 274.114C494.151 274.167 493.826 274.193 493.539 274.193C492.537 274.193 491.775 273.924 491.254 273.385C490.732 272.846 490.472 271.981 490.472 270.792V265.571H489.355V264.183H490.472V261.361H492.124V264.183H495.534V265.571H492.124V270.045C492.124 270.561 492.136 270.965 492.159 271.258C492.183 271.545 492.265 271.814 492.405 272.066C492.534 272.301 492.71 272.474 492.933 272.585C493.161 272.69 493.507 272.743 493.97 272.743C494.239 272.743 494.521 272.705 494.813 272.629C495.106 272.547 495.317 272.479 495.446 272.427H495.534V273.912ZM504.552 271.17C504.552 272.066 504.18 272.802 503.436 273.376C502.697 273.95 501.687 274.237 500.403 274.237C499.677 274.237 499.009 274.152 498.399 273.982C497.796 273.807 497.289 273.616 496.879 273.411V271.557H496.967C497.488 271.949 498.068 272.263 498.707 272.497C499.346 272.726 499.958 272.84 500.544 272.84C501.271 272.84 501.839 272.723 502.249 272.488C502.659 272.254 502.864 271.885 502.864 271.381C502.864 270.994 502.753 270.701 502.53 270.502C502.308 270.303 501.88 270.133 501.247 269.992C501.013 269.939 500.705 269.878 500.324 269.808C499.949 269.737 499.606 269.661 499.296 269.579C498.435 269.351 497.822 269.017 497.459 268.577C497.102 268.132 496.923 267.587 496.923 266.942C496.923 266.538 497.005 266.157 497.169 265.8C497.339 265.442 497.594 265.123 497.934 264.842C498.262 264.566 498.678 264.35 499.182 264.191C499.691 264.027 500.26 263.945 500.887 263.945C501.473 263.945 502.064 264.019 502.662 264.165C503.266 264.306 503.767 264.479 504.165 264.684V266.45H504.077C503.655 266.14 503.143 265.879 502.539 265.668C501.936 265.451 501.344 265.343 500.764 265.343C500.16 265.343 499.65 265.46 499.234 265.694C498.818 265.923 498.61 266.266 498.61 266.723C498.61 267.127 498.736 267.432 498.988 267.637C499.234 267.842 499.633 268.009 500.184 268.138C500.488 268.208 500.828 268.278 501.203 268.349C501.584 268.419 501.9 268.483 502.152 268.542C502.92 268.718 503.512 269.02 503.928 269.447C504.344 269.881 504.552 270.455 504.552 271.17ZM510.353 271.495L507.874 277.252H506.591L508.12 271.495H510.353ZM406.844 291.263H399.61C399.61 291.866 399.701 292.394 399.883 292.845C400.064 293.29 400.313 293.656 400.63 293.943C400.935 294.225 401.295 294.436 401.711 294.576C402.133 294.717 402.596 294.787 403.1 294.787C403.768 294.787 404.438 294.655 405.112 294.392C405.792 294.122 406.275 293.858 406.562 293.601H406.65V295.402C406.094 295.637 405.525 295.833 404.945 295.991C404.365 296.149 403.756 296.229 403.117 296.229C401.488 296.229 400.217 295.789 399.303 294.91C398.389 294.025 397.932 292.771 397.932 291.148C397.932 289.543 398.368 288.269 399.241 287.325C400.12 286.382 401.274 285.91 402.704 285.91C404.028 285.91 405.048 286.297 405.763 287.07C406.483 287.844 406.844 288.942 406.844 290.366V291.263ZM405.235 289.997C405.229 289.13 405.01 288.459 404.576 287.984C404.148 287.51 403.495 287.272 402.616 287.272C401.731 287.272 401.025 287.533 400.498 288.055C399.977 288.576 399.681 289.224 399.61 289.997H405.235ZM414.446 295.912C414.136 295.994 413.796 296.062 413.427 296.114C413.063 296.167 412.738 296.193 412.451 296.193C411.449 296.193 410.688 295.924 410.166 295.385C409.645 294.846 409.384 293.981 409.384 292.792V287.571H408.268V286.183H409.384V283.361H411.036V286.183H414.446V287.571H411.036V292.045C411.036 292.561 411.048 292.965 411.071 293.258C411.095 293.545 411.177 293.814 411.317 294.066C411.446 294.301 411.622 294.474 411.845 294.585C412.073 294.69 412.419 294.743 412.882 294.743C413.151 294.743 413.433 294.705 413.726 294.629C414.019 294.547 414.229 294.479 414.358 294.427H414.446V295.912ZM423.71 295.385C423.159 295.648 422.635 295.854 422.137 296C421.645 296.146 421.12 296.22 420.563 296.22C419.854 296.22 419.204 296.117 418.612 295.912C418.021 295.701 417.514 295.385 417.092 294.963C416.664 294.541 416.333 294.008 416.099 293.363C415.864 292.719 415.747 291.966 415.747 291.104C415.747 289.499 416.187 288.239 417.065 287.325C417.95 286.411 419.116 285.954 420.563 285.954C421.126 285.954 421.677 286.033 422.216 286.191C422.761 286.35 423.259 286.543 423.71 286.771V288.608H423.622C423.118 288.216 422.597 287.914 422.058 287.703C421.524 287.492 421.003 287.387 420.493 287.387C419.556 287.387 418.814 287.703 418.27 288.336C417.73 288.963 417.461 289.886 417.461 291.104C417.461 292.288 417.725 293.199 418.252 293.838C418.785 294.471 419.532 294.787 420.493 294.787C420.827 294.787 421.167 294.743 421.513 294.655C421.858 294.567 422.169 294.453 422.444 294.312C422.685 294.189 422.91 294.061 423.121 293.926C423.332 293.785 423.499 293.665 423.622 293.565H423.71V295.385ZM428.535 296H426.435V293.495H428.535V296Z" fill="black"/>
<path d="M702.656 285H700.802L699.519 281.353H693.858L692.575 285H690.809L695.572 271.913H697.893L702.656 285ZM698.982 279.858L696.688 273.434L694.386 279.858H698.982ZM713.15 279.973C713.15 280.77 713.036 281.499 712.808 282.161C712.579 282.817 712.257 283.374 711.841 283.831C711.454 284.265 710.997 284.602 710.47 284.842C709.948 285.076 709.395 285.193 708.809 285.193C708.299 285.193 707.836 285.138 707.42 285.026C707.01 284.915 706.591 284.742 706.163 284.508V288.621H704.511V275.183H706.163V276.211C706.603 275.842 707.095 275.534 707.64 275.288C708.19 275.036 708.776 274.91 709.397 274.91C710.581 274.91 711.501 275.358 712.157 276.255C712.819 277.146 713.15 278.385 713.15 279.973ZM711.445 280.017C711.445 278.833 711.243 277.948 710.839 277.362C710.435 276.776 709.813 276.483 708.976 276.483C708.501 276.483 708.023 276.586 707.543 276.791C707.062 276.996 706.603 277.266 706.163 277.6V283.163C706.632 283.374 707.033 283.518 707.367 283.594C707.707 283.67 708.091 283.708 708.519 283.708C709.438 283.708 710.156 283.397 710.672 282.776C711.188 282.155 711.445 281.235 711.445 280.017ZM723.354 285H721.711V283.954C721.564 284.054 721.365 284.194 721.113 284.376C720.867 284.552 720.627 284.692 720.393 284.798C720.117 284.933 719.801 285.044 719.443 285.132C719.086 285.226 718.667 285.272 718.187 285.272C717.302 285.272 716.552 284.979 715.937 284.394C715.321 283.808 715.014 283.061 715.014 282.152C715.014 281.408 715.172 280.808 715.488 280.351C715.811 279.888 716.268 279.524 716.859 279.261C717.457 278.997 718.175 278.818 719.013 278.725C719.851 278.631 720.75 278.561 721.711 278.514V278.259C721.711 277.884 721.644 277.573 721.509 277.327C721.38 277.081 721.192 276.888 720.946 276.747C720.712 276.612 720.431 276.521 720.103 276.475C719.774 276.428 719.432 276.404 719.074 276.404C718.641 276.404 718.157 276.463 717.624 276.58C717.091 276.691 716.54 276.855 715.972 277.072H715.884V275.394C716.206 275.306 716.672 275.209 717.281 275.104C717.891 274.998 718.491 274.945 719.083 274.945C719.774 274.945 720.375 275.004 720.885 275.121C721.4 275.232 721.846 275.426 722.221 275.701C722.59 275.971 722.871 276.319 723.064 276.747C723.258 277.175 723.354 277.705 723.354 278.338V285ZM721.711 282.583V279.85C721.207 279.879 720.612 279.923 719.927 279.981C719.247 280.04 718.708 280.125 718.31 280.236C717.835 280.371 717.451 280.582 717.158 280.869C716.865 281.15 716.719 281.54 716.719 282.038C716.719 282.601 716.889 283.025 717.229 283.312C717.568 283.594 718.087 283.734 718.784 283.734C719.364 283.734 719.895 283.623 720.375 283.4C720.855 283.172 721.301 282.899 721.711 282.583ZM732.662 276.984H732.574C732.328 276.926 732.088 276.885 731.854 276.861C731.625 276.832 731.353 276.817 731.036 276.817C730.526 276.817 730.034 276.932 729.56 277.16C729.085 277.383 728.628 277.673 728.188 278.03V285H726.536V275.183H728.188V276.633C728.845 276.105 729.422 275.733 729.92 275.517C730.424 275.294 730.937 275.183 731.458 275.183C731.745 275.183 731.953 275.191 732.082 275.209C732.211 275.221 732.404 275.247 732.662 275.288V276.984ZM739.315 284.912C739.005 284.994 738.665 285.062 738.296 285.114C737.933 285.167 737.607 285.193 737.32 285.193C736.318 285.193 735.557 284.924 735.035 284.385C734.514 283.846 734.253 282.981 734.253 281.792V276.571H733.137V275.183H734.253V272.361H735.905V275.183H739.315V276.571H735.905V281.045C735.905 281.561 735.917 281.965 735.94 282.258C735.964 282.545 736.046 282.814 736.187 283.066C736.315 283.301 736.491 283.474 736.714 283.585C736.942 283.69 737.288 283.743 737.751 283.743C738.021 283.743 738.302 283.705 738.595 283.629C738.888 283.547 739.099 283.479 739.228 283.427H739.315V284.912ZM755.646 285H753.993V279.41C753.993 278.988 753.973 278.581 753.932 278.188C753.896 277.796 753.817 277.482 753.694 277.248C753.56 276.996 753.366 276.806 753.114 276.677C752.862 276.548 752.499 276.483 752.024 276.483C751.562 276.483 751.099 276.601 750.636 276.835C750.173 277.063 749.71 277.356 749.247 277.714C749.265 277.849 749.279 278.007 749.291 278.188C749.303 278.364 749.309 278.54 749.309 278.716V285H747.656V279.41C747.656 278.977 747.636 278.566 747.595 278.18C747.56 277.787 747.48 277.474 747.357 277.239C747.223 276.987 747.029 276.8 746.777 276.677C746.525 276.548 746.162 276.483 745.688 276.483C745.236 276.483 744.782 276.595 744.325 276.817C743.874 277.04 743.423 277.324 742.972 277.67V285H741.319V275.183H742.972V276.272C743.487 275.845 744 275.511 744.51 275.271C745.025 275.03 745.573 274.91 746.153 274.91C746.821 274.91 747.387 275.051 747.85 275.332C748.318 275.613 748.667 276.003 748.896 276.501C749.563 275.938 750.173 275.534 750.724 275.288C751.274 275.036 751.863 274.91 752.49 274.91C753.568 274.91 754.362 275.238 754.872 275.895C755.388 276.545 755.646 277.456 755.646 278.628V285ZM767.045 280.263H759.812C759.812 280.866 759.902 281.394 760.084 281.845C760.266 282.29 760.515 282.656 760.831 282.943C761.136 283.225 761.496 283.436 761.912 283.576C762.334 283.717 762.797 283.787 763.301 283.787C763.969 283.787 764.64 283.655 765.313 283.392C765.993 283.122 766.477 282.858 766.764 282.601H766.852V284.402C766.295 284.637 765.727 284.833 765.146 284.991C764.566 285.149 763.957 285.229 763.318 285.229C761.689 285.229 760.418 284.789 759.504 283.91C758.59 283.025 758.133 281.771 758.133 280.148C758.133 278.543 758.569 277.269 759.442 276.325C760.321 275.382 761.476 274.91 762.905 274.91C764.229 274.91 765.249 275.297 765.964 276.07C766.685 276.844 767.045 277.942 767.045 279.366V280.263ZM765.437 278.997C765.431 278.13 765.211 277.459 764.777 276.984C764.35 276.51 763.696 276.272 762.817 276.272C761.933 276.272 761.227 276.533 760.699 277.055C760.178 277.576 759.882 278.224 759.812 278.997H765.437ZM777.759 285H776.106V279.41C776.106 278.959 776.08 278.537 776.027 278.145C775.975 277.746 775.878 277.436 775.737 277.213C775.591 276.967 775.38 276.785 775.104 276.668C774.829 276.545 774.472 276.483 774.032 276.483C773.581 276.483 773.109 276.595 772.617 276.817C772.125 277.04 771.653 277.324 771.202 277.67V285H769.55V275.183H771.202V276.272C771.718 275.845 772.251 275.511 772.802 275.271C773.353 275.03 773.918 274.91 774.498 274.91C775.559 274.91 776.367 275.229 776.924 275.868C777.48 276.507 777.759 277.427 777.759 278.628V285ZM786.038 284.912C785.728 284.994 785.388 285.062 785.019 285.114C784.655 285.167 784.33 285.193 784.043 285.193C783.041 285.193 782.279 284.924 781.758 284.385C781.236 283.846 780.976 282.981 780.976 281.792V276.571H779.859V275.183H780.976V272.361H782.628V275.183H786.038V276.571H782.628V281.045C782.628 281.561 782.64 281.965 782.663 282.258C782.687 282.545 782.769 282.814 782.909 283.066C783.038 283.301 783.214 283.474 783.437 283.585C783.665 283.69 784.011 283.743 784.474 283.743C784.743 283.743 785.024 283.705 785.317 283.629C785.61 283.547 785.821 283.479 785.95 283.427H786.038V284.912ZM795.056 282.17C795.056 283.066 794.684 283.802 793.939 284.376C793.201 284.95 792.19 285.237 790.907 285.237C790.181 285.237 789.513 285.152 788.903 284.982C788.3 284.807 787.793 284.616 787.383 284.411V282.557H787.471C787.992 282.949 788.572 283.263 789.211 283.497C789.85 283.726 790.462 283.84 791.048 283.84C791.774 283.84 792.343 283.723 792.753 283.488C793.163 283.254 793.368 282.885 793.368 282.381C793.368 281.994 793.257 281.701 793.034 281.502C792.812 281.303 792.384 281.133 791.751 280.992C791.517 280.939 791.209 280.878 790.828 280.808C790.453 280.737 790.11 280.661 789.8 280.579C788.938 280.351 788.326 280.017 787.963 279.577C787.605 279.132 787.427 278.587 787.427 277.942C787.427 277.538 787.509 277.157 787.673 276.8C787.843 276.442 788.098 276.123 788.438 275.842C788.766 275.566 789.182 275.35 789.686 275.191C790.195 275.027 790.764 274.945 791.391 274.945C791.977 274.945 792.568 275.019 793.166 275.165C793.77 275.306 794.271 275.479 794.669 275.684V277.45H794.581C794.159 277.14 793.646 276.879 793.043 276.668C792.439 276.451 791.848 276.343 791.268 276.343C790.664 276.343 790.154 276.46 789.738 276.694C789.322 276.923 789.114 277.266 789.114 277.723C789.114 278.127 789.24 278.432 789.492 278.637C789.738 278.842 790.137 279.009 790.688 279.138C790.992 279.208 791.332 279.278 791.707 279.349C792.088 279.419 792.404 279.483 792.656 279.542C793.424 279.718 794.016 280.02 794.432 280.447C794.848 280.881 795.056 281.455 795.056 282.17ZM815.016 279.973H810.226V284.763H808.767V279.973H803.977V278.566H808.767V273.776H810.226V278.566H815.016V279.973ZM834.457 281.265C834.457 281.774 834.337 282.278 834.097 282.776C833.862 283.274 833.531 283.696 833.104 284.042C832.635 284.417 832.087 284.71 831.46 284.921C830.839 285.132 830.089 285.237 829.21 285.237C828.267 285.237 827.417 285.149 826.661 284.974C825.911 284.798 825.146 284.537 824.367 284.191V282.012H824.49C825.152 282.562 825.917 282.987 826.784 283.286C827.651 283.585 828.466 283.734 829.228 283.734C830.306 283.734 831.144 283.532 831.741 283.128C832.345 282.724 832.646 282.185 832.646 281.511C832.646 280.931 832.503 280.503 832.216 280.228C831.935 279.952 831.504 279.738 830.924 279.586C830.484 279.469 830.007 279.372 829.491 279.296C828.981 279.22 828.439 279.123 827.865 279.006C826.705 278.76 825.844 278.341 825.281 277.749C824.725 277.151 824.446 276.375 824.446 275.42C824.446 274.324 824.909 273.428 825.835 272.73C826.761 272.027 827.936 271.676 829.359 271.676C830.279 271.676 831.123 271.764 831.891 271.939C832.658 272.115 833.338 272.332 833.93 272.59V274.646H833.807C833.309 274.225 832.652 273.876 831.838 273.601C831.029 273.319 830.2 273.179 829.351 273.179C828.419 273.179 827.669 273.372 827.101 273.759C826.538 274.146 826.257 274.644 826.257 275.253C826.257 275.798 826.397 276.226 826.679 276.536C826.96 276.847 827.455 277.084 828.164 277.248C828.539 277.33 829.072 277.43 829.764 277.547C830.455 277.664 831.041 277.784 831.521 277.907C832.494 278.165 833.227 278.555 833.719 279.076C834.211 279.598 834.457 280.327 834.457 281.265ZM845.329 285H843.677V279.41C843.677 278.959 843.65 278.537 843.598 278.145C843.545 277.746 843.448 277.436 843.308 277.213C843.161 276.967 842.95 276.785 842.675 276.668C842.399 276.545 842.042 276.483 841.603 276.483C841.151 276.483 840.68 276.595 840.188 276.817C839.695 277.04 839.224 277.324 838.772 277.67V285H837.12V271.324H838.772V276.272C839.288 275.845 839.821 275.511 840.372 275.271C840.923 275.03 841.488 274.91 842.068 274.91C843.129 274.91 843.938 275.229 844.494 275.868C845.051 276.507 845.329 277.427 845.329 278.628V285ZM856.878 280.096C856.878 281.695 856.468 282.958 855.647 283.884C854.827 284.81 853.729 285.272 852.352 285.272C850.963 285.272 849.858 284.81 849.038 283.884C848.224 282.958 847.816 281.695 847.816 280.096C847.816 278.496 848.224 277.233 849.038 276.308C849.858 275.376 850.963 274.91 852.352 274.91C853.729 274.91 854.827 275.376 855.647 276.308C856.468 277.233 856.878 278.496 856.878 280.096ZM855.173 280.096C855.173 278.824 854.924 277.881 854.426 277.266C853.928 276.645 853.236 276.334 852.352 276.334C851.455 276.334 850.758 276.645 850.26 277.266C849.768 277.881 849.521 278.824 849.521 280.096C849.521 281.326 849.771 282.261 850.269 282.899C850.767 283.532 851.461 283.849 852.352 283.849C853.23 283.849 853.919 283.535 854.417 282.908C854.921 282.275 855.173 281.338 855.173 280.096ZM868.084 279.973C868.084 280.77 867.97 281.499 867.741 282.161C867.513 282.817 867.19 283.374 866.774 283.831C866.388 284.265 865.931 284.602 865.403 284.842C864.882 285.076 864.328 285.193 863.742 285.193C863.232 285.193 862.77 285.138 862.354 285.026C861.943 284.915 861.524 284.742 861.097 284.508V288.621H859.444V275.183H861.097V276.211C861.536 275.842 862.028 275.534 862.573 275.288C863.124 275.036 863.71 274.91 864.331 274.91C865.515 274.91 866.435 275.358 867.091 276.255C867.753 277.146 868.084 278.385 868.084 279.973ZM866.379 280.017C866.379 278.833 866.177 277.948 865.772 277.362C865.368 276.776 864.747 276.483 863.909 276.483C863.435 276.483 862.957 276.586 862.477 276.791C861.996 276.996 861.536 277.266 861.097 277.6V283.163C861.565 283.374 861.967 283.518 862.301 283.594C862.641 283.67 863.024 283.708 863.452 283.708C864.372 283.708 865.09 283.397 865.605 282.776C866.121 282.155 866.379 281.235 866.379 280.017ZM877.673 282.17C877.673 283.066 877.301 283.802 876.557 284.376C875.818 284.95 874.808 285.237 873.524 285.237C872.798 285.237 872.13 285.152 871.521 284.982C870.917 284.807 870.41 284.616 870 284.411V282.557H870.088C870.609 282.949 871.189 283.263 871.828 283.497C872.467 283.726 873.079 283.84 873.665 283.84C874.392 283.84 874.96 283.723 875.37 283.488C875.78 283.254 875.985 282.885 875.985 282.381C875.985 281.994 875.874 281.701 875.651 281.502C875.429 281.303 875.001 281.133 874.368 280.992C874.134 280.939 873.826 280.878 873.445 280.808C873.07 280.737 872.728 280.661 872.417 280.579C871.556 280.351 870.943 280.017 870.58 279.577C870.223 279.132 870.044 278.587 870.044 277.942C870.044 277.538 870.126 277.157 870.29 276.8C870.46 276.442 870.715 276.123 871.055 275.842C871.383 275.566 871.799 275.35 872.303 275.191C872.812 275.027 873.381 274.945 874.008 274.945C874.594 274.945 875.186 275.019 875.783 275.165C876.387 275.306 876.888 275.479 877.286 275.684V277.45H877.198C876.776 277.14 876.264 276.879 875.66 276.668C875.057 276.451 874.465 276.343 873.885 276.343C873.281 276.343 872.771 276.46 872.355 276.694C871.939 276.923 871.731 277.266 871.731 277.723C871.731 278.127 871.857 278.432 872.109 278.637C872.355 278.842 872.754 279.009 873.305 279.138C873.609 279.208 873.949 279.278 874.324 279.349C874.705 279.419 875.021 279.483 875.273 279.542C876.041 279.718 876.633 280.02 877.049 280.447C877.465 280.881 877.673 281.455 877.673 282.17Z" fill="black"/>
<path d="M903.577 261.127H893.153V259.721H903.577V261.127ZM903.577 264.818H893.153V263.412H903.577V264.818ZM919.811 259.984H919.723C919.477 259.926 919.236 259.885 919.002 259.861C918.773 259.832 918.501 259.817 918.185 259.817C917.675 259.817 917.183 259.932 916.708 260.16C916.233 260.383 915.776 260.673 915.337 261.03V268H913.685V258.183H915.337V259.633C915.993 259.105 916.57 258.733 917.068 258.517C917.572 258.294 918.085 258.183 918.606 258.183C918.894 258.183 919.102 258.191 919.23 258.209C919.359 258.221 919.553 258.247 919.811 258.288V259.984Z" fill="black"/>
<path d="M49.8535 256H47.999L46.7158 252.353H41.0557L39.7725 256H38.0059L42.7695 242.913H45.0898L49.8535 256ZM46.1797 250.858L43.8857 244.434L41.583 250.858H46.1797ZM60.3477 250.973C60.3477 251.77 60.2334 252.499 60.0049 253.161C59.7764 253.817 59.4541 254.374 59.0381 254.831C58.6514 255.265 58.1943 255.602 57.667 255.842C57.1455 256.076 56.5918 256.193 56.0059 256.193C55.4961 256.193 55.0332 256.138 54.6172 256.026C54.207 255.915 53.7881 255.742 53.3604 255.508V259.621H51.708V246.183H53.3604V247.211C53.7998 246.842 54.292 246.534 54.8369 246.288C55.3877 246.036 55.9736 245.91 56.5947 245.91C57.7783 245.91 58.6982 246.358 59.3545 247.255C60.0166 248.146 60.3477 249.385 60.3477 250.973ZM58.6426 251.017C58.6426 249.833 58.4404 248.948 58.0361 248.362C57.6318 247.776 57.0107 247.483 56.1729 247.483C55.6982 247.483 55.2207 247.586 54.7402 247.791C54.2598 247.996 53.7998 248.266 53.3604 248.6V254.163C53.8291 254.374 54.2305 254.518 54.5645 254.594C54.9043 254.67 55.2881 254.708 55.7158 254.708C56.6357 254.708 57.3535 254.397 57.8691 253.776C58.3848 253.155 58.6426 252.235 58.6426 251.017ZM70.5518 256H68.9082V254.954C68.7617 255.054 68.5625 255.194 68.3105 255.376C68.0645 255.552 67.8242 255.692 67.5898 255.798C67.3145 255.933 66.998 256.044 66.6406 256.132C66.2832 256.226 65.8643 256.272 65.3838 256.272C64.499 256.272 63.749 255.979 63.1338 255.394C62.5186 254.808 62.2109 254.061 62.2109 253.152C62.2109 252.408 62.3691 251.808 62.6855 251.351C63.0078 250.888 63.4648 250.524 64.0566 250.261C64.6543 249.997 65.3721 249.818 66.21 249.725C67.0479 249.631 67.9473 249.561 68.9082 249.514V249.259C68.9082 248.884 68.8408 248.573 68.7061 248.327C68.5771 248.081 68.3896 247.888 68.1436 247.747C67.9092 247.612 67.6279 247.521 67.2998 247.475C66.9717 247.428 66.6289 247.404 66.2715 247.404C65.8379 247.404 65.3545 247.463 64.8213 247.58C64.2881 247.691 63.7373 247.855 63.1689 248.072H63.0811V246.394C63.4033 246.306 63.8691 246.209 64.4785 246.104C65.0879 245.998 65.6885 245.945 66.2803 245.945C66.9717 245.945 67.5723 246.004 68.082 246.121C68.5977 246.232 69.043 246.426 69.418 246.701C69.7871 246.971 70.0684 247.319 70.2617 247.747C70.4551 248.175 70.5518 248.705 70.5518 249.338V256ZM68.9082 253.583V250.85C68.4043 250.879 67.8096 250.923 67.124 250.981C66.4443 251.04 65.9053 251.125 65.5068 251.236C65.0322 251.371 64.6484 251.582 64.3555 251.869C64.0625 252.15 63.916 252.54 63.916 253.038C63.916 253.601 64.0859 254.025 64.4258 254.312C64.7656 254.594 65.2842 254.734 65.9814 254.734C66.5615 254.734 67.0918 254.623 67.5723 254.4C68.0527 254.172 68.498 253.899 68.9082 253.583ZM79.8594 247.984H79.7715C79.5254 247.926 79.2852 247.885 79.0508 247.861C78.8223 247.832 78.5498 247.817 78.2334 247.817C77.7236 247.817 77.2314 247.932 76.7568 248.16C76.2822 248.383 75.8252 248.673 75.3857 249.03V256H73.7334V246.183H75.3857V247.633C76.042 247.105 76.6191 246.733 77.1172 246.517C77.6211 246.294 78.1338 246.183 78.6553 246.183C78.9424 246.183 79.1504 246.191 79.2793 246.209C79.4082 246.221 79.6016 246.247 79.8594 246.288V247.984ZM86.5127 255.912C86.2021 255.994 85.8623 256.062 85.4932 256.114C85.1299 256.167 84.8047 256.193 84.5176 256.193C83.5156 256.193 82.7539 255.924 82.2324 255.385C81.7109 254.846 81.4502 253.981 81.4502 252.792V247.571H80.334V246.183H81.4502V243.361H83.1025V246.183H86.5127V247.571H83.1025V252.045C83.1025 252.561 83.1143 252.965 83.1377 253.258C83.1611 253.545 83.2432 253.814 83.3838 254.066C83.5127 254.301 83.6885 254.474 83.9111 254.585C84.1396 254.69 84.4854 254.743 84.9482 254.743C85.2178 254.743 85.499 254.705 85.792 254.629C86.085 254.547 86.2959 254.479 86.4248 254.427H86.5127V255.912ZM102.843 256H101.19V250.41C101.19 249.988 101.17 249.581 101.129 249.188C101.094 248.796 101.015 248.482 100.892 248.248C100.757 247.996 100.563 247.806 100.312 247.677C100.06 247.548 99.6963 247.483 99.2217 247.483C98.7588 247.483 98.2959 247.601 97.833 247.835C97.3701 248.063 96.9072 248.356 96.4443 248.714C96.4619 248.849 96.4766 249.007 96.4883 249.188C96.5 249.364 96.5059 249.54 96.5059 249.716V256H94.8535V250.41C94.8535 249.977 94.833 249.566 94.792 249.18C94.7568 248.787 94.6777 248.474 94.5547 248.239C94.4199 247.987 94.2266 247.8 93.9746 247.677C93.7227 247.548 93.3594 247.483 92.8848 247.483C92.4336 247.483 91.9795 247.595 91.5225 247.817C91.0713 248.04 90.6201 248.324 90.1689 248.67V256H88.5166V246.183H90.1689V247.272C90.6846 246.845 91.1973 246.511 91.707 246.271C92.2227 246.03 92.7705 245.91 93.3506 245.91C94.0186 245.91 94.584 246.051 95.0469 246.332C95.5156 246.613 95.8643 247.003 96.0928 247.501C96.7607 246.938 97.3701 246.534 97.9209 246.288C98.4717 246.036 99.0605 245.91 99.6875 245.91C100.766 245.91 101.56 246.238 102.069 246.895C102.585 247.545 102.843 248.456 102.843 249.628V256ZM114.242 251.263H107.009C107.009 251.866 107.1 252.394 107.281 252.845C107.463 253.29 107.712 253.656 108.028 253.943C108.333 254.225 108.693 254.436 109.109 254.576C109.531 254.717 109.994 254.787 110.498 254.787C111.166 254.787 111.837 254.655 112.511 254.392C113.19 254.122 113.674 253.858 113.961 253.601H114.049V255.402C113.492 255.637 112.924 255.833 112.344 255.991C111.764 256.149 111.154 256.229 110.516 256.229C108.887 256.229 107.615 255.789 106.701 254.91C105.787 254.025 105.33 252.771 105.33 251.148C105.33 249.543 105.767 248.269 106.64 247.325C107.519 246.382 108.673 245.91 110.103 245.91C111.427 245.91 112.446 246.297 113.161 247.07C113.882 247.844 114.242 248.942 114.242 250.366V251.263ZM112.634 249.997C112.628 249.13 112.408 248.459 111.975 247.984C111.547 247.51 110.894 247.272 110.015 247.272C109.13 247.272 108.424 247.533 107.896 248.055C107.375 248.576 107.079 249.224 107.009 249.997H112.634ZM124.956 256H123.304V250.41C123.304 249.959 123.277 249.537 123.225 249.145C123.172 248.746 123.075 248.436 122.935 248.213C122.788 247.967 122.577 247.785 122.302 247.668C122.026 247.545 121.669 247.483 121.229 247.483C120.778 247.483 120.307 247.595 119.814 247.817C119.322 248.04 118.851 248.324 118.399 248.67V256H116.747V246.183H118.399V247.272C118.915 246.845 119.448 246.511 119.999 246.271C120.55 246.03 121.115 245.91 121.695 245.91C122.756 245.91 123.564 246.229 124.121 246.868C124.678 247.507 124.956 248.427 124.956 249.628V256ZM133.235 255.912C132.925 255.994 132.585 256.062 132.216 256.114C131.853 256.167 131.527 256.193 131.24 256.193C130.238 256.193 129.477 255.924 128.955 255.385C128.434 254.846 128.173 253.981 128.173 252.792V247.571H127.057V246.183H128.173V243.361H129.825V246.183H133.235V247.571H129.825V252.045C129.825 252.561 129.837 252.965 129.86 253.258C129.884 253.545 129.966 253.814 130.106 254.066C130.235 254.301 130.411 254.474 130.634 254.585C130.862 254.69 131.208 254.743 131.671 254.743C131.94 254.743 132.222 254.705 132.515 254.629C132.808 254.547 133.019 254.479 133.147 254.427H133.235V255.912ZM142.253 253.17C142.253 254.066 141.881 254.802 141.137 255.376C140.398 255.95 139.388 256.237 138.104 256.237C137.378 256.237 136.71 256.152 136.101 255.982C135.497 255.807 134.99 255.616 134.58 255.411V253.557H134.668C135.189 253.949 135.77 254.263 136.408 254.497C137.047 254.726 137.659 254.84 138.245 254.84C138.972 254.84 139.54 254.723 139.95 254.488C140.36 254.254 140.565 253.885 140.565 253.381C140.565 252.994 140.454 252.701 140.231 252.502C140.009 252.303 139.581 252.133 138.948 251.992C138.714 251.939 138.406 251.878 138.025 251.808C137.65 251.737 137.308 251.661 136.997 251.579C136.136 251.351 135.523 251.017 135.16 250.577C134.803 250.132 134.624 249.587 134.624 248.942C134.624 248.538 134.706 248.157 134.87 247.8C135.04 247.442 135.295 247.123 135.635 246.842C135.963 246.566 136.379 246.35 136.883 246.191C137.393 246.027 137.961 245.945 138.588 245.945C139.174 245.945 139.766 246.019 140.363 246.165C140.967 246.306 141.468 246.479 141.866 246.684V248.45H141.778C141.356 248.14 140.844 247.879 140.24 247.668C139.637 247.451 139.045 247.343 138.465 247.343C137.861 247.343 137.352 247.46 136.936 247.694C136.52 247.923 136.312 248.266 136.312 248.723C136.312 249.127 136.438 249.432 136.689 249.637C136.936 249.842 137.334 250.009 137.885 250.138C138.189 250.208 138.529 250.278 138.904 250.349C139.285 250.419 139.602 250.483 139.854 250.542C140.621 250.718 141.213 251.02 141.629 251.447C142.045 251.881 142.253 252.455 142.253 253.17Z" fill="black"/>
<path d="M768.152 249.265C768.152 249.774 768.032 250.278 767.792 250.776C767.558 251.274 767.227 251.696 766.799 252.042C766.33 252.417 765.782 252.71 765.155 252.921C764.534 253.132 763.784 253.237 762.905 253.237C761.962 253.237 761.112 253.149 760.356 252.974C759.606 252.798 758.842 252.537 758.062 252.191V250.012H758.186C758.848 250.562 759.612 250.987 760.479 251.286C761.347 251.585 762.161 251.734 762.923 251.734C764.001 251.734 764.839 251.532 765.437 251.128C766.04 250.724 766.342 250.185 766.342 249.511C766.342 248.931 766.198 248.503 765.911 248.228C765.63 247.952 765.199 247.738 764.619 247.586C764.18 247.469 763.702 247.372 763.187 247.296C762.677 247.22 762.135 247.123 761.561 247.006C760.4 246.76 759.539 246.341 758.977 245.749C758.42 245.151 758.142 244.375 758.142 243.42C758.142 242.324 758.604 241.428 759.53 240.73C760.456 240.027 761.631 239.676 763.055 239.676C763.975 239.676 764.818 239.764 765.586 239.939C766.354 240.115 767.033 240.332 767.625 240.59V242.646H767.502C767.004 242.225 766.348 241.876 765.533 241.601C764.725 241.319 763.896 241.179 763.046 241.179C762.114 241.179 761.364 241.372 760.796 241.759C760.233 242.146 759.952 242.644 759.952 243.253C759.952 243.798 760.093 244.226 760.374 244.536C760.655 244.847 761.15 245.084 761.859 245.248C762.234 245.33 762.768 245.43 763.459 245.547C764.15 245.664 764.736 245.784 765.217 245.907C766.189 246.165 766.922 246.555 767.414 247.076C767.906 247.598 768.152 248.327 768.152 249.265ZM779.024 253H777.372V247.41C777.372 246.959 777.346 246.537 777.293 246.145C777.24 245.746 777.144 245.436 777.003 245.213C776.856 244.967 776.646 244.785 776.37 244.668C776.095 244.545 775.737 244.483 775.298 244.483C774.847 244.483 774.375 244.595 773.883 244.817C773.391 245.04 772.919 245.324 772.468 245.67V253H770.815V239.324H772.468V244.272C772.983 243.845 773.517 243.511 774.067 243.271C774.618 243.03 775.184 242.91 775.764 242.91C776.824 242.91 777.633 243.229 778.189 243.868C778.746 244.507 779.024 245.427 779.024 246.628V253ZM790.573 248.096C790.573 249.695 790.163 250.958 789.343 251.884C788.522 252.81 787.424 253.272 786.047 253.272C784.658 253.272 783.554 252.81 782.733 251.884C781.919 250.958 781.512 249.695 781.512 248.096C781.512 246.496 781.919 245.233 782.733 244.308C783.554 243.376 784.658 242.91 786.047 242.91C787.424 242.91 788.522 243.376 789.343 244.308C790.163 245.233 790.573 246.496 790.573 248.096ZM788.868 248.096C788.868 246.824 788.619 245.881 788.121 245.266C787.623 244.645 786.932 244.334 786.047 244.334C785.15 244.334 784.453 244.645 783.955 245.266C783.463 245.881 783.217 246.824 783.217 248.096C783.217 249.326 783.466 250.261 783.964 250.899C784.462 251.532 785.156 251.849 786.047 251.849C786.926 251.849 787.614 251.535 788.112 250.908C788.616 250.275 788.868 249.338 788.868 248.096ZM801.779 247.973C801.779 248.77 801.665 249.499 801.437 250.161C801.208 250.817 800.886 251.374 800.47 251.831C800.083 252.265 799.626 252.602 799.099 252.842C798.577 253.076 798.023 253.193 797.438 253.193C796.928 253.193 796.465 253.138 796.049 253.026C795.639 252.915 795.22 252.742 794.792 252.508V256.621H793.14V243.183H794.792V244.211C795.231 243.842 795.724 243.534 796.269 243.288C796.819 243.036 797.405 242.91 798.026 242.91C799.21 242.91 800.13 243.358 800.786 244.255C801.448 245.146 801.779 246.385 801.779 247.973ZM800.074 248.017C800.074 246.833 799.872 245.948 799.468 245.362C799.063 244.776 798.442 244.483 797.604 244.483C797.13 244.483 796.652 244.586 796.172 244.791C795.691 244.996 795.231 245.266 794.792 245.6V251.163C795.261 251.374 795.662 251.518 795.996 251.594C796.336 251.67 796.72 251.708 797.147 251.708C798.067 251.708 798.785 251.397 799.301 250.776C799.816 250.155 800.074 249.235 800.074 248.017ZM811.368 250.17C811.368 251.066 810.996 251.802 810.252 252.376C809.514 252.95 808.503 253.237 807.22 253.237C806.493 253.237 805.825 253.152 805.216 252.982C804.612 252.807 804.105 252.616 803.695 252.411V250.557H803.783C804.305 250.949 804.885 251.263 805.523 251.497C806.162 251.726 806.774 251.84 807.36 251.84C808.087 251.84 808.655 251.723 809.065 251.488C809.476 251.254 809.681 250.885 809.681 250.381C809.681 249.994 809.569 249.701 809.347 249.502C809.124 249.303 808.696 249.133 808.063 248.992C807.829 248.939 807.521 248.878 807.141 248.808C806.766 248.737 806.423 248.661 806.112 248.579C805.251 248.351 804.639 248.017 804.275 247.577C803.918 247.132 803.739 246.587 803.739 245.942C803.739 245.538 803.821 245.157 803.985 244.8C804.155 244.442 804.41 244.123 804.75 243.842C805.078 243.566 805.494 243.35 805.998 243.191C806.508 243.027 807.076 242.945 807.703 242.945C808.289 242.945 808.881 243.019 809.479 243.165C810.082 243.306 810.583 243.479 810.981 243.684V245.45H810.894C810.472 245.14 809.959 244.879 809.355 244.668C808.752 244.451 808.16 244.343 807.58 244.343C806.977 244.343 806.467 244.46 806.051 244.694C805.635 244.923 805.427 245.266 805.427 245.723C805.427 246.127 805.553 246.432 805.805 246.637C806.051 246.842 806.449 247.009 807 247.138C807.305 247.208 807.645 247.278 808.02 247.349C808.4 247.419 808.717 247.483 808.969 247.542C809.736 247.718 810.328 248.02 810.744 248.447C811.16 248.881 811.368 249.455 811.368 250.17Z" fill="black"/>
<path d="M690 262L879 262" stroke="black"/>
<path d="M49.8535 139H47.999L46.7158 135.353H41.0557L39.7725 139H38.0059L42.7695 125.913H45.0898L49.8535 139ZM46.1797 133.858L43.8857 127.434L41.583 133.858H46.1797ZM60.3477 133.973C60.3477 134.77 60.2334 135.499 60.0049 136.161C59.7764 136.817 59.4541 137.374 59.0381 137.831C58.6514 138.265 58.1943 138.602 57.667 138.842C57.1455 139.076 56.5918 139.193 56.0059 139.193C55.4961 139.193 55.0332 139.138 54.6172 139.026C54.207 138.915 53.7881 138.742 53.3604 138.508V142.621H51.708V129.183H53.3604V130.211C53.7998 129.842 54.292 129.534 54.8369 129.288C55.3877 129.036 55.9736 128.91 56.5947 128.91C57.7783 128.91 58.6982 129.358 59.3545 130.255C60.0166 131.146 60.3477 132.385 60.3477 133.973ZM58.6426 134.017C58.6426 132.833 58.4404 131.948 58.0361 131.362C57.6318 130.776 57.0107 130.483 56.1729 130.483C55.6982 130.483 55.2207 130.586 54.7402 130.791C54.2598 130.996 53.7998 131.266 53.3604 131.6V137.163C53.8291 137.374 54.2305 137.518 54.5645 137.594C54.9043 137.67 55.2881 137.708 55.7158 137.708C56.6357 137.708 57.3535 137.397 57.8691 136.776C58.3848 136.155 58.6426 135.235 58.6426 134.017ZM70.5518 139H68.9082V137.954C68.7617 138.054 68.5625 138.194 68.3105 138.376C68.0645 138.552 67.8242 138.692 67.5898 138.798C67.3145 138.933 66.998 139.044 66.6406 139.132C66.2832 139.226 65.8643 139.272 65.3838 139.272C64.499 139.272 63.749 138.979 63.1338 138.394C62.5186 137.808 62.2109 137.061 62.2109 136.152C62.2109 135.408 62.3691 134.808 62.6855 134.351C63.0078 133.888 63.4648 133.524 64.0566 133.261C64.6543 132.997 65.3721 132.818 66.21 132.725C67.0479 132.631 67.9473 132.561 68.9082 132.514V132.259C68.9082 131.884 68.8408 131.573 68.7061 131.327C68.5771 131.081 68.3896 130.888 68.1436 130.747C67.9092 130.612 67.6279 130.521 67.2998 130.475C66.9717 130.428 66.6289 130.404 66.2715 130.404C65.8379 130.404 65.3545 130.463 64.8213 130.58C64.2881 130.691 63.7373 130.855 63.1689 131.072H63.0811V129.394C63.4033 129.306 63.8691 129.209 64.4785 129.104C65.0879 128.998 65.6885 128.945 66.2803 128.945C66.9717 128.945 67.5723 129.004 68.082 129.121C68.5977 129.232 69.043 129.426 69.418 129.701C69.7871 129.971 70.0684 130.319 70.2617 130.747C70.4551 131.175 70.5518 131.705 70.5518 132.338V139ZM68.9082 136.583V133.85C68.4043 133.879 67.8096 133.923 67.124 133.981C66.4443 134.04 65.9053 134.125 65.5068 134.236C65.0322 134.371 64.6484 134.582 64.3555 134.869C64.0625 135.15 63.916 135.54 63.916 136.038C63.916 136.601 64.0859 137.025 64.4258 137.312C64.7656 137.594 65.2842 137.734 65.9814 137.734C66.5615 137.734 67.0918 137.623 67.5723 137.4C68.0527 137.172 68.498 136.899 68.9082 136.583ZM79.8594 130.984H79.7715C79.5254 130.926 79.2852 130.885 79.0508 130.861C78.8223 130.832 78.5498 130.817 78.2334 130.817C77.7236 130.817 77.2314 130.932 76.7568 131.16C76.2822 131.383 75.8252 131.673 75.3857 132.03V139H73.7334V129.183H75.3857V130.633C76.042 130.105 76.6191 129.733 77.1172 129.517C77.6211 129.294 78.1338 129.183 78.6553 129.183C78.9424 129.183 79.1504 129.191 79.2793 129.209C79.4082 129.221 79.6016 129.247 79.8594 129.288V130.984ZM86.5127 138.912C86.2021 138.994 85.8623 139.062 85.4932 139.114C85.1299 139.167 84.8047 139.193 84.5176 139.193C83.5156 139.193 82.7539 138.924 82.2324 138.385C81.7109 137.846 81.4502 136.981 81.4502 135.792V130.571H80.334V129.183H81.4502V126.361H83.1025V129.183H86.5127V130.571H83.1025V135.045C83.1025 135.561 83.1143 135.965 83.1377 136.258C83.1611 136.545 83.2432 136.814 83.3838 137.066C83.5127 137.301 83.6885 137.474 83.9111 137.585C84.1396 137.69 84.4854 137.743 84.9482 137.743C85.2178 137.743 85.499 137.705 85.792 137.629C86.085 137.547 86.2959 137.479 86.4248 137.427H86.5127V138.912ZM102.843 139H101.19V133.41C101.19 132.988 101.17 132.581 101.129 132.188C101.094 131.796 101.015 131.482 100.892 131.248C100.757 130.996 100.563 130.806 100.312 130.677C100.06 130.548 99.6963 130.483 99.2217 130.483C98.7588 130.483 98.2959 130.601 97.833 130.835C97.3701 131.063 96.9072 131.356 96.4443 131.714C96.4619 131.849 96.4766 132.007 96.4883 132.188C96.5 132.364 96.5059 132.54 96.5059 132.716V139H94.8535V133.41C94.8535 132.977 94.833 132.566 94.792 132.18C94.7568 131.787 94.6777 131.474 94.5547 131.239C94.4199 130.987 94.2266 130.8 93.9746 130.677C93.7227 130.548 93.3594 130.483 92.8848 130.483C92.4336 130.483 91.9795 130.595 91.5225 130.817C91.0713 131.04 90.6201 131.324 90.1689 131.67V139H88.5166V129.183H90.1689V130.272C90.6846 129.845 91.1973 129.511 91.707 129.271C92.2227 129.03 92.7705 128.91 93.3506 128.91C94.0186 128.91 94.584 129.051 95.0469 129.332C95.5156 129.613 95.8643 130.003 96.0928 130.501C96.7607 129.938 97.3701 129.534 97.9209 129.288C98.4717 129.036 99.0605 128.91 99.6875 128.91C100.766 128.91 101.56 129.238 102.069 129.895C102.585 130.545 102.843 131.456 102.843 132.628V139ZM114.242 134.263H107.009C107.009 134.866 107.1 135.394 107.281 135.845C107.463 136.29 107.712 136.656 108.028 136.943C108.333 137.225 108.693 137.436 109.109 137.576C109.531 137.717 109.994 137.787 110.498 137.787C111.166 137.787 111.837 137.655 112.511 137.392C113.19 137.122 113.674 136.858 113.961 136.601H114.049V138.402C113.492 138.637 112.924 138.833 112.344 138.991C111.764 139.149 111.154 139.229 110.516 139.229C108.887 139.229 107.615 138.789 106.701 137.91C105.787 137.025 105.33 135.771 105.33 134.148C105.33 132.543 105.767 131.269 106.64 130.325C107.519 129.382 108.673 128.91 110.103 128.91C111.427 128.91 112.446 129.297 113.161 130.07C113.882 130.844 114.242 131.942 114.242 133.366V134.263ZM112.634 132.997C112.628 132.13 112.408 131.459 111.975 130.984C111.547 130.51 110.894 130.272 110.015 130.272C109.13 130.272 108.424 130.533 107.896 131.055C107.375 131.576 107.079 132.224 107.009 132.997H112.634ZM124.956 139H123.304V133.41C123.304 132.959 123.277 132.537 123.225 132.145C123.172 131.746 123.075 131.436 122.935 131.213C122.788 130.967 122.577 130.785 122.302 130.668C122.026 130.545 121.669 130.483 121.229 130.483C120.778 130.483 120.307 130.595 119.814 130.817C119.322 131.04 118.851 131.324 118.399 131.67V139H116.747V129.183H118.399V130.272C118.915 129.845 119.448 129.511 119.999 129.271C120.55 129.03 121.115 128.91 121.695 128.91C122.756 128.91 123.564 129.229 124.121 129.868C124.678 130.507 124.956 131.427 124.956 132.628V139ZM133.235 138.912C132.925 138.994 132.585 139.062 132.216 139.114C131.853 139.167 131.527 139.193 131.24 139.193C130.238 139.193 129.477 138.924 128.955 138.385C128.434 137.846 128.173 136.981 128.173 135.792V130.571H127.057V129.183H128.173V126.361H129.825V129.183H133.235V130.571H129.825V135.045C129.825 135.561 129.837 135.965 129.86 136.258C129.884 136.545 129.966 136.814 130.106 137.066C130.235 137.301 130.411 137.474 130.634 137.585C130.862 137.69 131.208 137.743 131.671 137.743C131.94 137.743 132.222 137.705 132.515 137.629C132.808 137.547 133.019 137.479 133.147 137.427H133.235V138.912ZM142.253 136.17C142.253 137.066 141.881 137.802 141.137 138.376C140.398 138.95 139.388 139.237 138.104 139.237C137.378 139.237 136.71 139.152 136.101 138.982C135.497 138.807 134.99 138.616 134.58 138.411V136.557H134.668C135.189 136.949 135.77 137.263 136.408 137.497C137.047 137.726 137.659 137.84 138.245 137.84C138.972 137.84 139.54 137.723 139.95 137.488C140.36 137.254 140.565 136.885 140.565 136.381C140.565 135.994 140.454 135.701 140.231 135.502C140.009 135.303 139.581 135.133 138.948 134.992C138.714 134.939 138.406 134.878 138.025 134.808C137.65 134.737 137.308 134.661 136.997 134.579C136.136 134.351 135.523 134.017 135.16 133.577C134.803 133.132 134.624 132.587 134.624 131.942C134.624 131.538 134.706 131.157 134.87 130.8C135.04 130.442 135.295 130.123 135.635 129.842C135.963 129.566 136.379 129.35 136.883 129.191C137.393 129.027 137.961 128.945 138.588 128.945C139.174 128.945 139.766 129.019 140.363 129.165C140.967 129.306 141.468 129.479 141.866 129.684V131.45H141.778C141.356 131.14 140.844 130.879 140.24 130.668C139.637 130.451 139.045 130.343 138.465 130.343C137.861 130.343 137.352 130.46 136.936 130.694C136.52 130.923 136.312 131.266 136.312 131.723C136.312 132.127 136.438 132.432 136.689 132.637C136.936 132.842 137.334 133.009 137.885 133.138C138.189 133.208 138.529 133.278 138.904 133.349C139.285 133.419 139.602 133.483 139.854 133.542C140.621 133.718 141.213 134.02 141.629 134.447C142.045 134.881 142.253 135.455 142.253 136.17Z" fill="black"/>
<path d="M49.8535 369H47.999L46.7158 365.353H41.0557L39.7725 369H38.0059L42.7695 355.913H45.0898L49.8535 369ZM46.1797 363.858L43.8857 357.434L41.583 363.858H46.1797ZM60.3477 363.973C60.3477 364.77 60.2334 365.499 60.0049 366.161C59.7764 366.817 59.4541 367.374 59.0381 367.831C58.6514 368.265 58.1943 368.602 57.667 368.842C57.1455 369.076 56.5918 369.193 56.0059 369.193C55.4961 369.193 55.0332 369.138 54.6172 369.026C54.207 368.915 53.7881 368.742 53.3604 368.508V372.621H51.708V359.183H53.3604V360.211C53.7998 359.842 54.292 359.534 54.8369 359.288C55.3877 359.036 55.9736 358.91 56.5947 358.91C57.7783 358.91 58.6982 359.358 59.3545 360.255C60.0166 361.146 60.3477 362.385 60.3477 363.973ZM58.6426 364.017C58.6426 362.833 58.4404 361.948 58.0361 361.362C57.6318 360.776 57.0107 360.483 56.1729 360.483C55.6982 360.483 55.2207 360.586 54.7402 360.791C54.2598 360.996 53.7998 361.266 53.3604 361.6V367.163C53.8291 367.374 54.2305 367.518 54.5645 367.594C54.9043 367.67 55.2881 367.708 55.7158 367.708C56.6357 367.708 57.3535 367.397 57.8691 366.776C58.3848 366.155 58.6426 365.235 58.6426 364.017ZM70.5518 369H68.9082V367.954C68.7617 368.054 68.5625 368.194 68.3105 368.376C68.0645 368.552 67.8242 368.692 67.5898 368.798C67.3145 368.933 66.998 369.044 66.6406 369.132C66.2832 369.226 65.8643 369.272 65.3838 369.272C64.499 369.272 63.749 368.979 63.1338 368.394C62.5186 367.808 62.2109 367.061 62.2109 366.152C62.2109 365.408 62.3691 364.808 62.6855 364.351C63.0078 363.888 63.4648 363.524 64.0566 363.261C64.6543 362.997 65.3721 362.818 66.21 362.725C67.0479 362.631 67.9473 362.561 68.9082 362.514V362.259C68.9082 361.884 68.8408 361.573 68.7061 361.327C68.5771 361.081 68.3896 360.888 68.1436 360.747C67.9092 360.612 67.6279 360.521 67.2998 360.475C66.9717 360.428 66.6289 360.404 66.2715 360.404C65.8379 360.404 65.3545 360.463 64.8213 360.58C64.2881 360.691 63.7373 360.855 63.1689 361.072H63.0811V359.394C63.4033 359.306 63.8691 359.209 64.4785 359.104C65.0879 358.998 65.6885 358.945 66.2803 358.945C66.9717 358.945 67.5723 359.004 68.082 359.121C68.5977 359.232 69.043 359.426 69.418 359.701C69.7871 359.971 70.0684 360.319 70.2617 360.747C70.4551 361.175 70.5518 361.705 70.5518 362.338V369ZM68.9082 366.583V363.85C68.4043 363.879 67.8096 363.923 67.124 363.981C66.4443 364.04 65.9053 364.125 65.5068 364.236C65.0322 364.371 64.6484 364.582 64.3555 364.869C64.0625 365.15 63.916 365.54 63.916 366.038C63.916 366.601 64.0859 367.025 64.4258 367.312C64.7656 367.594 65.2842 367.734 65.9814 367.734C66.5615 367.734 67.0918 367.623 67.5723 367.4C68.0527 367.172 68.498 366.899 68.9082 366.583ZM79.8594 360.984H79.7715C79.5254 360.926 79.2852 360.885 79.0508 360.861C78.8223 360.832 78.5498 360.817 78.2334 360.817C77.7236 360.817 77.2314 360.932 76.7568 361.16C76.2822 361.383 75.8252 361.673 75.3857 362.03V369H73.7334V359.183H75.3857V360.633C76.042 360.105 76.6191 359.733 77.1172 359.517C77.6211 359.294 78.1338 359.183 78.6553 359.183C78.9424 359.183 79.1504 359.191 79.2793 359.209C79.4082 359.221 79.6016 359.247 79.8594 359.288V360.984ZM86.5127 368.912C86.2021 368.994 85.8623 369.062 85.4932 369.114C85.1299 369.167 84.8047 369.193 84.5176 369.193C83.5156 369.193 82.7539 368.924 82.2324 368.385C81.7109 367.846 81.4502 366.981 81.4502 365.792V360.571H80.334V359.183H81.4502V356.361H83.1025V359.183H86.5127V360.571H83.1025V365.045C83.1025 365.561 83.1143 365.965 83.1377 366.258C83.1611 366.545 83.2432 366.814 83.3838 367.066C83.5127 367.301 83.6885 367.474 83.9111 367.585C84.1396 367.69 84.4854 367.743 84.9482 367.743C85.2178 367.743 85.499 367.705 85.792 367.629C86.085 367.547 86.2959 367.479 86.4248 367.427H86.5127V368.912ZM102.843 369H101.19V363.41C101.19 362.988 101.17 362.581 101.129 362.188C101.094 361.796 101.015 361.482 100.892 361.248C100.757 360.996 100.563 360.806 100.312 360.677C100.06 360.548 99.6963 360.483 99.2217 360.483C98.7588 360.483 98.2959 360.601 97.833 360.835C97.3701 361.063 96.9072 361.356 96.4443 361.714C96.4619 361.849 96.4766 362.007 96.4883 362.188C96.5 362.364 96.5059 362.54 96.5059 362.716V369H94.8535V363.41C94.8535 362.977 94.833 362.566 94.792 362.18C94.7568 361.787 94.6777 361.474 94.5547 361.239C94.4199 360.987 94.2266 360.8 93.9746 360.677C93.7227 360.548 93.3594 360.483 92.8848 360.483C92.4336 360.483 91.9795 360.595 91.5225 360.817C91.0713 361.04 90.6201 361.324 90.1689 361.67V369H88.5166V359.183H90.1689V360.272C90.6846 359.845 91.1973 359.511 91.707 359.271C92.2227 359.03 92.7705 358.91 93.3506 358.91C94.0186 358.91 94.584 359.051 95.0469 359.332C95.5156 359.613 95.8643 360.003 96.0928 360.501C96.7607 359.938 97.3701 359.534 97.9209 359.288C98.4717 359.036 99.0605 358.91 99.6875 358.91C100.766 358.91 101.56 359.238 102.069 359.895C102.585 360.545 102.843 361.456 102.843 362.628V369ZM114.242 364.263H107.009C107.009 364.866 107.1 365.394 107.281 365.845C107.463 366.29 107.712 366.656 108.028 366.943C108.333 367.225 108.693 367.436 109.109 367.576C109.531 367.717 109.994 367.787 110.498 367.787C111.166 367.787 111.837 367.655 112.511 367.392C113.19 367.122 113.674 366.858 113.961 366.601H114.049V368.402C113.492 368.637 112.924 368.833 112.344 368.991C111.764 369.149 111.154 369.229 110.516 369.229C108.887 369.229 107.615 368.789 106.701 367.91C105.787 367.025 105.33 365.771 105.33 364.148C105.33 362.543 105.767 361.269 106.64 360.325C107.519 359.382 108.673 358.91 110.103 358.91C111.427 358.91 112.446 359.297 113.161 360.07C113.882 360.844 114.242 361.942 114.242 363.366V364.263ZM112.634 362.997C112.628 362.13 112.408 361.459 111.975 360.984C111.547 360.51 110.894 360.272 110.015 360.272C109.13 360.272 108.424 360.533 107.896 361.055C107.375 361.576 107.079 362.224 107.009 362.997H112.634ZM124.956 369H123.304V363.41C123.304 362.959 123.277 362.537 123.225 362.145C123.172 361.746 123.075 361.436 122.935 361.213C122.788 360.967 122.577 360.785 122.302 360.668C122.026 360.545 121.669 360.483 121.229 360.483C120.778 360.483 120.307 360.595 119.814 360.817C119.322 361.04 118.851 361.324 118.399 361.67V369H116.747V359.183H118.399V360.272C118.915 359.845 119.448 359.511 119.999 359.271C120.55 359.03 121.115 358.91 121.695 358.91C122.756 358.91 123.564 359.229 124.121 359.868C124.678 360.507 124.956 361.427 124.956 362.628V369ZM133.235 368.912C132.925 368.994 132.585 369.062 132.216 369.114C131.853 369.167 131.527 369.193 131.24 369.193C130.238 369.193 129.477 368.924 128.955 368.385C128.434 367.846 128.173 366.981 128.173 365.792V360.571H127.057V359.183H128.173V356.361H129.825V359.183H133.235V360.571H129.825V365.045C129.825 365.561 129.837 365.965 129.86 366.258C129.884 366.545 129.966 366.814 130.106 367.066C130.235 367.301 130.411 367.474 130.634 367.585C130.862 367.69 131.208 367.743 131.671 367.743C131.94 367.743 132.222 367.705 132.515 367.629C132.808 367.547 133.019 367.479 133.147 367.427H133.235V368.912ZM142.253 366.17C142.253 367.066 141.881 367.802 141.137 368.376C140.398 368.95 139.388 369.237 138.104 369.237C137.378 369.237 136.71 369.152 136.101 368.982C135.497 368.807 134.99 368.616 134.58 368.411V366.557H134.668C135.189 366.949 135.77 367.263 136.408 367.497C137.047 367.726 137.659 367.84 138.245 367.84C138.972 367.84 139.54 367.723 139.95 367.488C140.36 367.254 140.565 366.885 140.565 366.381C140.565 365.994 140.454 365.701 140.231 365.502C140.009 365.303 139.581 365.133 138.948 364.992C138.714 364.939 138.406 364.878 138.025 364.808C137.65 364.737 137.308 364.661 136.997 364.579C136.136 364.351 135.523 364.017 135.16 363.577C134.803 363.132 134.624 362.587 134.624 361.942C134.624 361.538 134.706 361.157 134.87 360.8C135.04 360.442 135.295 360.123 135.635 359.842C135.963 359.566 136.379 359.35 136.883 359.191C137.393 359.027 137.961 358.945 138.588 358.945C139.174 358.945 139.766 359.019 140.363 359.165C140.967 359.306 141.468 359.479 141.866 359.684V361.45H141.778C141.356 361.14 140.844 360.879 140.24 360.668C139.637 360.451 139.045 360.343 138.465 360.343C137.861 360.343 137.352 360.46 136.936 360.694C136.52 360.923 136.312 361.266 136.312 361.723C136.312 362.127 136.438 362.432 136.689 362.637C136.936 362.842 137.334 363.009 137.885 363.138C138.189 363.208 138.529 363.278 138.904 363.349C139.285 363.419 139.602 363.483 139.854 363.542C140.621 363.718 141.213 364.02 141.629 364.447C142.045 364.881 142.253 365.455 142.253 366.17Z" fill="black"/>
<path d="M182 106H175.28V137.5M182 183H175.28V137.5M175.28 137.5H168" stroke="black"/>
<path d="M49.8535 56H47.999L46.7158 52.3525H41.0557L39.7725 56H38.0059L42.7695 42.9131H45.0898L49.8535 56ZM46.1797 50.8584L43.8857 44.4336L41.583 50.8584H46.1797ZM60.3477 50.9727C60.3477 51.7695 60.2334 52.499 60.0049 53.1611C59.7764 53.8174 59.4541 54.374 59.0381 54.8311C58.6514 55.2646 58.1943 55.6016 57.667 55.8418C57.1455 56.0762 56.5918 56.1934 56.0059 56.1934C55.4961 56.1934 55.0332 56.1377 54.6172 56.0264C54.207 55.915 53.7881 55.7422 53.3604 55.5078V59.6211H51.708V46.1826H53.3604V47.2109C53.7998 46.8418 54.292 46.5342 54.8369 46.2881C55.3877 46.0361 55.9736 45.9102 56.5947 45.9102C57.7783 45.9102 58.6982 46.3584 59.3545 47.2549C60.0166 48.1455 60.3477 49.3848 60.3477 50.9727ZM58.6426 51.0166C58.6426 49.833 58.4404 48.9482 58.0361 48.3623C57.6318 47.7764 57.0107 47.4834 56.1729 47.4834C55.6982 47.4834 55.2207 47.5859 54.7402 47.791C54.2598 47.9961 53.7998 48.2656 53.3604 48.5996V54.1631C53.8291 54.374 54.2305 54.5176 54.5645 54.5938C54.9043 54.6699 55.2881 54.708 55.7158 54.708C56.6357 54.708 57.3535 54.3975 57.8691 53.7764C58.3848 53.1553 58.6426 52.2354 58.6426 51.0166ZM70.5518 56H68.9082V54.9541C68.7617 55.0537 68.5625 55.1943 68.3105 55.376C68.0645 55.5518 67.8242 55.6924 67.5898 55.7979C67.3145 55.9326 66.998 56.0439 66.6406 56.1318C66.2832 56.2256 65.8643 56.2725 65.3838 56.2725C64.499 56.2725 63.749 55.9795 63.1338 55.3936C62.5186 54.8076 62.2109 54.0605 62.2109 53.1523C62.2109 52.4082 62.3691 51.8076 62.6855 51.3506C63.0078 50.8877 63.4648 50.5244 64.0566 50.2607C64.6543 49.9971 65.3721 49.8184 66.21 49.7246C67.0479 49.6309 67.9473 49.5605 68.9082 49.5137V49.2588C68.9082 48.8838 68.8408 48.5732 68.7061 48.3271C68.5771 48.0811 68.3896 47.8877 68.1436 47.7471C67.9092 47.6123 67.6279 47.5215 67.2998 47.4746C66.9717 47.4277 66.6289 47.4043 66.2715 47.4043C65.8379 47.4043 65.3545 47.4629 64.8213 47.5801C64.2881 47.6914 63.7373 47.8555 63.1689 48.0723H63.0811V46.3936C63.4033 46.3057 63.8691 46.209 64.4785 46.1035C65.0879 45.998 65.6885 45.9453 66.2803 45.9453C66.9717 45.9453 67.5723 46.0039 68.082 46.1211C68.5977 46.2324 69.043 46.4258 69.418 46.7012C69.7871 46.9707 70.0684 47.3193 70.2617 47.7471C70.4551 48.1748 70.5518 48.7051 70.5518 49.3379V56ZM68.9082 53.583V50.8496C68.4043 50.8789 67.8096 50.9229 67.124 50.9814C66.4443 51.04 65.9053 51.125 65.5068 51.2363C65.0322 51.3711 64.6484 51.582 64.3555 51.8691C64.0625 52.1504 63.916 52.54 63.916 53.0381C63.916 53.6006 64.0859 54.0254 64.4258 54.3125C64.7656 54.5938 65.2842 54.7344 65.9814 54.7344C66.5615 54.7344 67.0918 54.623 67.5723 54.4004C68.0527 54.1719 68.498 53.8994 68.9082 53.583ZM79.8594 47.9844H79.7715C79.5254 47.9258 79.2852 47.8848 79.0508 47.8613C78.8223 47.832 78.5498 47.8174 78.2334 47.8174C77.7236 47.8174 77.2314 47.9316 76.7568 48.1602C76.2822 48.3828 75.8252 48.6729 75.3857 49.0303V56H73.7334V46.1826H75.3857V47.6328C76.042 47.1055 76.6191 46.7334 77.1172 46.5166C77.6211 46.2939 78.1338 46.1826 78.6553 46.1826C78.9424 46.1826 79.1504 46.1914 79.2793 46.209C79.4082 46.2207 79.6016 46.2471 79.8594 46.2881V47.9844ZM86.5127 55.9121C86.2021 55.9941 85.8623 56.0615 85.4932 56.1143C85.1299 56.167 84.8047 56.1934 84.5176 56.1934C83.5156 56.1934 82.7539 55.9238 82.2324 55.3848C81.7109 54.8457 81.4502 53.9814 81.4502 52.792V47.5713H80.334V46.1826H81.4502V43.3613H83.1025V46.1826H86.5127V47.5713H83.1025V52.0449C83.1025 52.5605 83.1143 52.9648 83.1377 53.2578C83.1611 53.5449 83.2432 53.8145 83.3838 54.0664C83.5127 54.3008 83.6885 54.4736 83.9111 54.585C84.1396 54.6904 84.4854 54.7432 84.9482 54.7432C85.2178 54.7432 85.499 54.7051 85.792 54.6289C86.085 54.5469 86.2959 54.4795 86.4248 54.4268H86.5127V55.9121ZM102.843 56H101.19V50.4102C101.19 49.9883 101.17 49.5811 101.129 49.1885C101.094 48.7959 101.015 48.4824 100.892 48.248C100.757 47.9961 100.563 47.8057 100.312 47.6768C100.06 47.5479 99.6963 47.4834 99.2217 47.4834C98.7588 47.4834 98.2959 47.6006 97.833 47.835C97.3701 48.0635 96.9072 48.3564 96.4443 48.7139C96.4619 48.8486 96.4766 49.0068 96.4883 49.1885C96.5 49.3643 96.5059 49.54 96.5059 49.7158V56H94.8535V50.4102C94.8535 49.9766 94.833 49.5664 94.792 49.1797C94.7568 48.7871 94.6777 48.4736 94.5547 48.2393C94.4199 47.9873 94.2266 47.7998 93.9746 47.6768C93.7227 47.5479 93.3594 47.4834 92.8848 47.4834C92.4336 47.4834 91.9795 47.5947 91.5225 47.8174C91.0713 48.04 90.6201 48.3242 90.1689 48.6699V56H88.5166V46.1826H90.1689V47.2725C90.6846 46.8447 91.1973 46.5107 91.707 46.2705C92.2227 46.0303 92.7705 45.9102 93.3506 45.9102C94.0186 45.9102 94.584 46.0508 95.0469 46.332C95.5156 46.6133 95.8643 47.0029 96.0928 47.501C96.7607 46.9385 97.3701 46.5342 97.9209 46.2881C98.4717 46.0361 99.0605 45.9102 99.6875 45.9102C100.766 45.9102 101.56 46.2383 102.069 46.8945C102.585 47.5449 102.843 48.4561 102.843 49.6279V56ZM114.242 51.2627H107.009C107.009 51.8662 107.1 52.3936 107.281 52.8447C107.463 53.29 107.712 53.6562 108.028 53.9434C108.333 54.2246 108.693 54.4355 109.109 54.5762C109.531 54.7168 109.994 54.7871 110.498 54.7871C111.166 54.7871 111.837 54.6553 112.511 54.3916C113.19 54.1221 113.674 53.8584 113.961 53.6006H114.049V55.4023C113.492 55.6367 112.924 55.833 112.344 55.9912C111.764 56.1494 111.154 56.2285 110.516 56.2285C108.887 56.2285 107.615 55.7891 106.701 54.9102C105.787 54.0254 105.33 52.7715 105.33 51.1484C105.33 49.543 105.767 48.2686 106.64 47.3252C107.519 46.3818 108.673 45.9102 110.103 45.9102C111.427 45.9102 112.446 46.2969 113.161 47.0703C113.882 47.8438 114.242 48.9424 114.242 50.3662V51.2627ZM112.634 49.9971C112.628 49.1299 112.408 48.459 111.975 47.9844C111.547 47.5098 110.894 47.2725 110.015 47.2725C109.13 47.2725 108.424 47.5332 107.896 48.0547C107.375 48.5762 107.079 49.2236 107.009 49.9971H112.634ZM124.956 56H123.304V50.4102C123.304 49.959 123.277 49.5371 123.225 49.1445C123.172 48.7461 123.075 48.4355 122.935 48.2129C122.788 47.9668 122.577 47.7852 122.302 47.668C122.026 47.5449 121.669 47.4834 121.229 47.4834C120.778 47.4834 120.307 47.5947 119.814 47.8174C119.322 48.04 118.851 48.3242 118.399 48.6699V56H116.747V46.1826H118.399V47.2725C118.915 46.8447 119.448 46.5107 119.999 46.2705C120.55 46.0303 121.115 45.9102 121.695 45.9102C122.756 45.9102 123.564 46.2295 124.121 46.8682C124.678 47.5068 124.956 48.4268 124.956 49.6279V56ZM133.235 55.9121C132.925 55.9941 132.585 56.0615 132.216 56.1143C131.853 56.167 131.527 56.1934 131.24 56.1934C130.238 56.1934 129.477 55.9238 128.955 55.3848C128.434 54.8457 128.173 53.9814 128.173 52.792V47.5713H127.057V46.1826H128.173V43.3613H129.825V46.1826H133.235V47.5713H129.825V52.0449C129.825 52.5605 129.837 52.9648 129.86 53.2578C129.884 53.5449 129.966 53.8145 130.106 54.0664C130.235 54.3008 130.411 54.4736 130.634 54.585C130.862 54.6904 131.208 54.7432 131.671 54.7432C131.94 54.7432 132.222 54.7051 132.515 54.6289C132.808 54.5469 133.019 54.4795 133.147 54.4268H133.235V55.9121ZM142.253 53.1699C142.253 54.0664 141.881 54.8018 141.137 55.376C140.398 55.9502 139.388 56.2373 138.104 56.2373C137.378 56.2373 136.71 56.1523 136.101 55.9824C135.497 55.8066 134.99 55.6162 134.58 55.4111V53.5566H134.668C135.189 53.9492 135.77 54.2627 136.408 54.4971C137.047 54.7256 137.659 54.8398 138.245 54.8398C138.972 54.8398 139.54 54.7227 139.95 54.4883C140.36 54.2539 140.565 53.8848 140.565 53.3809C140.565 52.9941 140.454 52.7012 140.231 52.502C140.009 52.3027 139.581 52.1328 138.948 51.9922C138.714 51.9395 138.406 51.8779 138.025 51.8076C137.65 51.7373 137.308 51.6611 136.997 51.5791C136.136 51.3506 135.523 51.0166 135.16 50.5771C134.803 50.1318 134.624 49.5869 134.624 48.9424C134.624 48.5381 134.706 48.1572 134.87 47.7998C135.04 47.4424 135.295 47.123 135.635 46.8418C135.963 46.5664 136.379 46.3496 136.883 46.1914C137.393 46.0273 137.961 45.9453 138.588 45.9453C139.174 45.9453 139.766 46.0186 140.363 46.165C140.967 46.3057 141.468 46.4785 141.866 46.6836V48.4502H141.778C141.356 48.1396 140.844 47.8789 140.24 47.668C139.637 47.4512 139.045 47.3428 138.465 47.3428C137.861 47.3428 137.352 47.46 136.936 47.6943C136.52 47.9229 136.312 48.2656 136.312 48.7227C136.312 49.127 136.438 49.4316 136.689 49.6367C136.936 49.8418 137.334 50.0088 137.885 50.1377C138.189 50.208 138.529 50.2783 138.904 50.3486C139.285 50.4189 139.602 50.4834 139.854 50.542C140.621 50.7178 141.213 51.0195 141.629 51.4473C142.045 51.8809 142.253 52.4551 142.253 53.1699Z" fill="black"/>
<path d="M183 35H175.8V50.5455M183 73H175.8V50.5455M175.8 50.5455H168" stroke="black"/>
<path d="M49.8535 464H47.999L46.7158 460.353H41.0557L39.7725 464H38.0059L42.7695 450.913H45.0898L49.8535 464ZM46.1797 458.858L43.8857 452.434L41.583 458.858H46.1797ZM60.3477 458.973C60.3477 459.77 60.2334 460.499 60.0049 461.161C59.7764 461.817 59.4541 462.374 59.0381 462.831C58.6514 463.265 58.1943 463.602 57.667 463.842C57.1455 464.076 56.5918 464.193 56.0059 464.193C55.4961 464.193 55.0332 464.138 54.6172 464.026C54.207 463.915 53.7881 463.742 53.3604 463.508V467.621H51.708V454.183H53.3604V455.211C53.7998 454.842 54.292 454.534 54.8369 454.288C55.3877 454.036 55.9736 453.91 56.5947 453.91C57.7783 453.91 58.6982 454.358 59.3545 455.255C60.0166 456.146 60.3477 457.385 60.3477 458.973ZM58.6426 459.017C58.6426 457.833 58.4404 456.948 58.0361 456.362C57.6318 455.776 57.0107 455.483 56.1729 455.483C55.6982 455.483 55.2207 455.586 54.7402 455.791C54.2598 455.996 53.7998 456.266 53.3604 456.6V462.163C53.8291 462.374 54.2305 462.518 54.5645 462.594C54.9043 462.67 55.2881 462.708 55.7158 462.708C56.6357 462.708 57.3535 462.397 57.8691 461.776C58.3848 461.155 58.6426 460.235 58.6426 459.017ZM70.5518 464H68.9082V462.954C68.7617 463.054 68.5625 463.194 68.3105 463.376C68.0645 463.552 67.8242 463.692 67.5898 463.798C67.3145 463.933 66.998 464.044 66.6406 464.132C66.2832 464.226 65.8643 464.272 65.3838 464.272C64.499 464.272 63.749 463.979 63.1338 463.394C62.5186 462.808 62.2109 462.061 62.2109 461.152C62.2109 460.408 62.3691 459.808 62.6855 459.351C63.0078 458.888 63.4648 458.524 64.0566 458.261C64.6543 457.997 65.3721 457.818 66.21 457.725C67.0479 457.631 67.9473 457.561 68.9082 457.514V457.259C68.9082 456.884 68.8408 456.573 68.7061 456.327C68.5771 456.081 68.3896 455.888 68.1436 455.747C67.9092 455.612 67.6279 455.521 67.2998 455.475C66.9717 455.428 66.6289 455.404 66.2715 455.404C65.8379 455.404 65.3545 455.463 64.8213 455.58C64.2881 455.691 63.7373 455.855 63.1689 456.072H63.0811V454.394C63.4033 454.306 63.8691 454.209 64.4785 454.104C65.0879 453.998 65.6885 453.945 66.2803 453.945C66.9717 453.945 67.5723 454.004 68.082 454.121C68.5977 454.232 69.043 454.426 69.418 454.701C69.7871 454.971 70.0684 455.319 70.2617 455.747C70.4551 456.175 70.5518 456.705 70.5518 457.338V464ZM68.9082 461.583V458.85C68.4043 458.879 67.8096 458.923 67.124 458.981C66.4443 459.04 65.9053 459.125 65.5068 459.236C65.0322 459.371 64.6484 459.582 64.3555 459.869C64.0625 460.15 63.916 460.54 63.916 461.038C63.916 461.601 64.0859 462.025 64.4258 462.312C64.7656 462.594 65.2842 462.734 65.9814 462.734C66.5615 462.734 67.0918 462.623 67.5723 462.4C68.0527 462.172 68.498 461.899 68.9082 461.583ZM79.8594 455.984H79.7715C79.5254 455.926 79.2852 455.885 79.0508 455.861C78.8223 455.832 78.5498 455.817 78.2334 455.817C77.7236 455.817 77.2314 455.932 76.7568 456.16C76.2822 456.383 75.8252 456.673 75.3857 457.03V464H73.7334V454.183H75.3857V455.633C76.042 455.105 76.6191 454.733 77.1172 454.517C77.6211 454.294 78.1338 454.183 78.6553 454.183C78.9424 454.183 79.1504 454.191 79.2793 454.209C79.4082 454.221 79.6016 454.247 79.8594 454.288V455.984ZM86.5127 463.912C86.2021 463.994 85.8623 464.062 85.4932 464.114C85.1299 464.167 84.8047 464.193 84.5176 464.193C83.5156 464.193 82.7539 463.924 82.2324 463.385C81.7109 462.846 81.4502 461.981 81.4502 460.792V455.571H80.334V454.183H81.4502V451.361H83.1025V454.183H86.5127V455.571H83.1025V460.045C83.1025 460.561 83.1143 460.965 83.1377 461.258C83.1611 461.545 83.2432 461.814 83.3838 462.066C83.5127 462.301 83.6885 462.474 83.9111 462.585C84.1396 462.69 84.4854 462.743 84.9482 462.743C85.2178 462.743 85.499 462.705 85.792 462.629C86.085 462.547 86.2959 462.479 86.4248 462.427H86.5127V463.912ZM102.843 464H101.19V458.41C101.19 457.988 101.17 457.581 101.129 457.188C101.094 456.796 101.015 456.482 100.892 456.248C100.757 455.996 100.563 455.806 100.312 455.677C100.06 455.548 99.6963 455.483 99.2217 455.483C98.7588 455.483 98.2959 455.601 97.833 455.835C97.3701 456.063 96.9072 456.356 96.4443 456.714C96.4619 456.849 96.4766 457.007 96.4883 457.188C96.5 457.364 96.5059 457.54 96.5059 457.716V464H94.8535V458.41C94.8535 457.977 94.833 457.566 94.792 457.18C94.7568 456.787 94.6777 456.474 94.5547 456.239C94.4199 455.987 94.2266 455.8 93.9746 455.677C93.7227 455.548 93.3594 455.483 92.8848 455.483C92.4336 455.483 91.9795 455.595 91.5225 455.817C91.0713 456.04 90.6201 456.324 90.1689 456.67V464H88.5166V454.183H90.1689V455.272C90.6846 454.845 91.1973 454.511 91.707 454.271C92.2227 454.03 92.7705 453.91 93.3506 453.91C94.0186 453.91 94.584 454.051 95.0469 454.332C95.5156 454.613 95.8643 455.003 96.0928 455.501C96.7607 454.938 97.3701 454.534 97.9209 454.288C98.4717 454.036 99.0605 453.91 99.6875 453.91C100.766 453.91 101.56 454.238 102.069 454.895C102.585 455.545 102.843 456.456 102.843 457.628V464ZM114.242 459.263H107.009C107.009 459.866 107.1 460.394 107.281 460.845C107.463 461.29 107.712 461.656 108.028 461.943C108.333 462.225 108.693 462.436 109.109 462.576C109.531 462.717 109.994 462.787 110.498 462.787C111.166 462.787 111.837 462.655 112.511 462.392C113.19 462.122 113.674 461.858 113.961 461.601H114.049V463.402C113.492 463.637 112.924 463.833 112.344 463.991C111.764 464.149 111.154 464.229 110.516 464.229C108.887 464.229 107.615 463.789 106.701 462.91C105.787 462.025 105.33 460.771 105.33 459.148C105.33 457.543 105.767 456.269 106.64 455.325C107.519 454.382 108.673 453.91 110.103 453.91C111.427 453.91 112.446 454.297 113.161 455.07C113.882 455.844 114.242 456.942 114.242 458.366V459.263ZM112.634 457.997C112.628 457.13 112.408 456.459 111.975 455.984C111.547 455.51 110.894 455.272 110.015 455.272C109.13 455.272 108.424 455.533 107.896 456.055C107.375 456.576 107.079 457.224 107.009 457.997H112.634ZM124.956 464H123.304V458.41C123.304 457.959 123.277 457.537 123.225 457.145C123.172 456.746 123.075 456.436 122.935 456.213C122.788 455.967 122.577 455.785 122.302 455.668C122.026 455.545 121.669 455.483 121.229 455.483C120.778 455.483 120.307 455.595 119.814 455.817C119.322 456.04 118.851 456.324 118.399 456.67V464H116.747V454.183H118.399V455.272C118.915 454.845 119.448 454.511 119.999 454.271C120.55 454.03 121.115 453.91 121.695 453.91C122.756 453.91 123.564 454.229 124.121 454.868C124.678 455.507 124.956 456.427 124.956 457.628V464ZM133.235 463.912C132.925 463.994 132.585 464.062 132.216 464.114C131.853 464.167 131.527 464.193 131.24 464.193C130.238 464.193 129.477 463.924 128.955 463.385C128.434 462.846 128.173 461.981 128.173 460.792V455.571H127.057V454.183H128.173V451.361H129.825V454.183H133.235V455.571H129.825V460.045C129.825 460.561 129.837 460.965 129.86 461.258C129.884 461.545 129.966 461.814 130.106 462.066C130.235 462.301 130.411 462.474 130.634 462.585C130.862 462.69 131.208 462.743 131.671 462.743C131.94 462.743 132.222 462.705 132.515 462.629C132.808 462.547 133.019 462.479 133.147 462.427H133.235V463.912ZM142.253 461.17C142.253 462.066 141.881 462.802 141.137 463.376C140.398 463.95 139.388 464.237 138.104 464.237C137.378 464.237 136.71 464.152 136.101 463.982C135.497 463.807 134.99 463.616 134.58 463.411V461.557H134.668C135.189 461.949 135.77 462.263 136.408 462.497C137.047 462.726 137.659 462.84 138.245 462.84C138.972 462.84 139.54 462.723 139.95 462.488C140.36 462.254 140.565 461.885 140.565 461.381C140.565 460.994 140.454 460.701 140.231 460.502C140.009 460.303 139.581 460.133 138.948 459.992C138.714 459.939 138.406 459.878 138.025 459.808C137.65 459.737 137.308 459.661 136.997 459.579C136.136 459.351 135.523 459.017 135.16 458.577C134.803 458.132 134.624 457.587 134.624 456.942C134.624 456.538 134.706 456.157 134.87 455.8C135.04 455.442 135.295 455.123 135.635 454.842C135.963 454.566 136.379 454.35 136.883 454.191C137.393 454.027 137.961 453.945 138.588 453.945C139.174 453.945 139.766 454.019 140.363 454.165C140.967 454.306 141.468 454.479 141.866 454.684V456.45H141.778C141.356 456.14 140.844 455.879 140.24 455.668C139.637 455.451 139.045 455.343 138.465 455.343C137.861 455.343 137.352 455.46 136.936 455.694C136.52 455.923 136.312 456.266 136.312 456.723C136.312 457.127 136.438 457.432 136.689 457.637C136.936 457.842 137.334 458.009 137.885 458.138C138.189 458.208 138.529 458.278 138.904 458.349C139.285 458.419 139.602 458.483 139.854 458.542C140.621 458.718 141.213 459.02 141.629 459.447C142.045 459.881 142.253 460.455 142.253 461.17Z" fill="black"/>
<path d="M183 442H175.8V457.955M183 481H175.8V457.955M175.8 457.955H168" stroke="black"/>
<path d="M182 217H175.28V248.909M182 295H175.28V248.909M175.28 248.909H168" stroke="black"/>
<path d="M182 329H175.28V360.5M182 406H175.28V360.5M175.28 360.5H168" stroke="black"/>
<path d="M278 33H615" stroke="black"/>
<path d="M278 479H615" stroke="black"/>
<path d="M584.707 34.2929C584.317 33.9024 583.683 33.9024 583.293 34.2929L576.929 40.6569C576.538 41.0474 576.538 41.6805 576.929 42.0711C577.319 42.4616 577.953 42.4616 578.343 42.0711L584 36.4142L589.657 42.0711C590.047 42.4616 590.681 42.4616 591.071 42.0711C591.462 41.6805 591.462 41.0474 591.071 40.6569L584.707 34.2929ZM583.293 477.707C583.683 478.098 584.317 478.098 584.707 477.707L591.071 471.343C591.462 470.953 591.462 470.319 591.071 469.929C590.681 469.538 590.047 469.538 589.657 469.929L584 475.586L578.343 469.929C577.953 469.538 577.319 469.538 576.929 469.929C576.538 470.319 576.538 470.953 576.929 471.343L583.293 477.707ZM583 35L583 477L585 477L585 35L583 35Z" fill="black"/>
<path d="M601.835 269H600.183V263.41C600.183 262.959 600.156 262.537 600.104 262.145C600.051 261.746 599.954 261.436 599.813 261.213C599.667 260.967 599.456 260.785 599.181 260.668C598.905 260.545 598.548 260.483 598.108 260.483C597.657 260.483 597.186 260.595 596.693 260.817C596.201 261.04 595.729 261.324 595.278 261.67V269H593.626V255.324H595.278V260.272C595.794 259.845 596.327 259.511 596.878 259.271C597.429 259.03 597.994 258.91 598.574 258.91C599.635 258.91 600.443 259.229 601 259.868C601.557 260.507 601.835 261.427 601.835 262.628V269Z" fill="black"/>
<rect x="658.5" y="209.5" width="293" height="102" stroke="black"/>
</g>
<defs>
<clipPath id="clip0">
<rect width="1016" height="511" fill="white"/>
</clipPath>
</defs>
</svg>
