<svg width="1016" height="704" viewBox="0 0 1016 704" fill="none" xmlns="http://www.w3.org/2000/svg">
<g clip-path="url(#clip0)">
<rect width="1016" height="704" fill="white"/>
<circle opacity="0.25" cx="913" cy="121" r="941" fill="#9AC15C"/>
<circle opacity="0.25" cx="913" cy="132" r="544" fill="#9AC15C"/>
<circle opacity="0.25" cx="908" cy="132" r="365" fill="#9AC15C"/>
<circle opacity="0.25" cx="908" cy="132" r="194" fill="#9AC15C"/>
<path d="M179.5 592.5L180.38 592.975L180.733 592.321L180.209 591.794L179.5 592.5ZM66 478.5L65.3881 477.709L64.4918 478.402L65.2913 479.206L66 478.5ZM187.5 384.5L188.31 383.914L187.705 383.077L186.888 383.709L187.5 384.5ZM241 458.5L240.19 459.086L240.553 459.588L241.164 459.486L241 458.5ZM388.5 434L388.664 434.986L390.338 434.708L389.283 433.379L388.5 434ZM258 269.5V268.5H255.93L257.217 270.121L258 269.5ZM388.5 269.5V270.5H389.5V269.5H388.5ZM388.5 155.5L389.057 154.669L387.5 153.625V155.5H388.5ZM473.5 212.5L474.469 212.747L474.643 212.063L474.057 211.669L473.5 212.5ZM432 375.5L431.031 375.253L430.684 376.618L432.086 376.496L432 375.5ZM692 353L692.086 353.996L693.359 353.886L692.946 352.677L692 353ZM644 212.5L644.946 212.177L644.254 210.149L643.144 211.982L644 212.5ZM596.5 291L595.644 290.482L594.077 293.072L596.879 291.925L596.5 291ZM822.5 198.5L822.879 199.425L823.807 199.045L823.424 198.118L822.5 198.5ZM791.5 123.5L791.314 122.517L790.106 122.746L790.576 123.882L791.5 123.5ZM865.5 109.5L866.04 108.659L865.705 108.443L865.314 108.517L865.5 109.5ZM913.213 140.977C913.753 140.859 914.095 140.327 913.977 139.787L912.06 130.993C911.943 130.454 911.41 130.112 910.87 130.229C910.331 130.347 909.989 130.88 910.106 131.419L911.81 139.236L903.993 140.939C903.454 141.057 903.112 141.59 903.229 142.129C903.347 142.669 903.88 143.011 904.419 142.894L913.213 140.977ZM180.209 591.794L66.7087 477.794L65.2913 479.206L178.791 593.206L180.209 591.794ZM66.6119 479.291L188.112 385.291L186.888 383.709L65.3881 477.709L66.6119 479.291ZM186.69 385.086L240.19 459.086L241.81 457.914L188.31 383.914L186.69 385.086ZM241.164 459.486L388.664 434.986L388.336 433.014L240.836 457.514L241.164 459.486ZM389.283 433.379L258.783 268.879L257.217 270.121L387.717 434.621L389.283 433.379ZM258 270.5H388.5V268.5H258V270.5ZM389.5 269.5V155.5H387.5V269.5H389.5ZM387.943 156.331L472.943 213.331L474.057 211.669L389.057 154.669L387.943 156.331ZM472.531 212.253L431.031 375.253L432.969 375.747L474.469 212.747L472.531 212.253ZM432.086 376.496L692.086 353.996L691.914 352.004L431.914 374.504L432.086 376.496ZM692.946 352.677L644.946 212.177L643.054 212.823L691.054 353.323L692.946 352.677ZM643.144 211.982L595.644 290.482L597.356 291.518L644.856 213.018L643.144 211.982ZM596.879 291.925L822.879 199.425L822.121 197.575L596.121 290.075L596.879 291.925ZM823.424 198.118L792.424 123.118L790.576 123.882L821.576 198.882L823.424 198.118ZM791.686 124.483L865.686 110.483L865.314 108.517L791.314 122.517L791.686 124.483ZM864.96 110.341L912.46 140.841L913.54 139.159L866.04 108.659L864.96 110.341ZM178.62 592.025L118.12 704.025L119.88 704.975L180.38 592.975L178.62 592.025Z" fill="black"/>
<path d="M916.598 151.626C915.313 151.352 915.296 151 914.157 150.44C912.855 149.813 911.116 150.299 910.239 151.035C908.155 152.782 908.515 156.899 910.198 158.83C910.8 159.52 911.719 160.198 912.52 160.645C913.376 161.123 914.171 161.724 915.079 162.102C916.292 162.606 917.626 163.12 918.947 163.146C919.813 163.163 920.68 162.985 921.538 162.899C923.764 162.677 925.991 162.591 928.193 162.169C929.366 161.944 930.771 161.751 931.959 161.996C935.075 162.636 938.397 162.516 941.554 162.273C943.615 162.115 945.592 161.629 947.641 161.402C949.333 161.215 951.072 161.318 952.776 161.261C954.465 161.205 956.219 161.062 957.895 161.345C959.219 161.568 960.516 162.252 961.838 162.351C963.297 162.461 964.784 163.386 965.973 164.144C967.557 165.155 969.19 166.129 970.665 167.293C971.788 168.18 973.014 169.014 974.388 169.439C975.281 169.715 976.495 169.965 977.408 169.655C978.566 169.263 979.972 168.435 980.734 167.469C981.542 166.446 982.15 165.268 982.967 164.234C983.419 163.661 982.302 162.013 982.003 161.56C981.208 160.36 980.107 159.358 978.981 158.469C977.878 157.598 976.74 156.802 975.617 155.972C974.118 154.864 972.079 154.413 970.335 153.864C966.882 152.779 963.562 151.697 959.933 151.381C957.957 151.209 955.949 151.215 953.968 151.114C951.467 150.985 948.872 151.2 946.408 151.597C942.478 152.23 938.445 152.101 934.454 152.11C932.852 152.114 931.241 151.722 929.645 151.883C927.923 152.058 926.185 151.785 924.463 151.926C922.586 152.079 920.83 152.464 918.937 152.155C917.952 151.994 917.471 151.946 916.598 151.626Z" fill="#EEEEEE" stroke="black" stroke-width="2" stroke-linecap="round" stroke-linejoin="round"/>
<path d="M908.884 153.451C908.12 152.847 906.975 151.504 906.009 151.32C904.712 151.072 903.256 151.969 902.107 152.466C899.542 153.577 897.681 156.508 896.116 158.672C894.698 160.633 894.593 162.848 893.731 165.028C892.433 168.306 890.996 171.355 888.615 174.001C887.524 175.214 885.556 174.487 884.422 173.89C882.971 173.127 881.729 172.074 880.448 171.063C878.971 169.896 877.28 168.812 876.002 167.424C874.917 166.246 874.317 164.874 873.029 163.857C872.605 163.522 872.191 163.128 871.727 162.85C870.768 162.275 868.936 163.097 868.039 163.469C866.109 164.27 864.321 165.444 862.478 166.42C860.985 167.209 859.449 167.906 857.955 168.691C856.727 169.338 856.174 170.122 855.194 171.091C854.357 171.919 853.542 172.775 852.689 173.586C852.075 174.171 851.506 174.987 850.606 175.045C849.365 175.125 848.116 174.715 846.972 174.294C845.368 173.705 843.766 172.913 842.033 173.476" stroke="black" stroke-linecap="round" stroke-linejoin="round"/>
<path d="M911.332 159.621C910.352 160.862 909.246 162.277 907.577 162.52C906.277 162.71 904.756 162.621 903.464 162.376C902.87 162.263 902.609 162.172 902.141 161.802C900.53 160.531 898.92 159.259 897.309 157.988C895.268 156.376 893.394 155.574 890.858 155.248C889.398 155.061 888.032 155.723 886.685 156.223C884.99 156.853 883.604 159.124 882.539 160.472C881.257 162.096 880.278 163.779 879.174 165.52C877.848 167.612 876.634 169.641 874.917 171.468C873.648 172.819 871.478 174.193 869.509 173.94C866.089 173.5 863.67 170.528 861.142 168.532C860.357 167.913 859.59 167.244 858.775 166.664C857.999 166.112 856.241 167.151 855.636 167.577C853.569 169.033 851.406 170.363 849.371 171.866C847.949 172.916 846.947 174.482 845.585 175.618C844.736 176.325 843.466 176.685 842.366 176.714C841.338 176.741 840.381 176.469 839.385 176.586" stroke="black" stroke-linecap="round" stroke-linejoin="round"/>
<path d="M977.563 164.415C979.355 162.638 981.988 162.52 984.43 162.806C985.393 162.919 986.123 163.276 986.862 163.859" stroke="black" stroke-linecap="round" stroke-linejoin="round"/>
<path d="M977.8 160.943C979.484 158.957 982.3 157.585 984.911 157.44C985.403 157.412 986.293 157.25 986.749 157.415" stroke="black" stroke-linecap="round" stroke-linejoin="round"/>
<path d="M977.7 167.412C979.854 167.892 981.773 168.702 983.502 170.067" stroke="black" stroke-linecap="round" stroke-linejoin="round"/>
<mask id="path-13-inside-1" fill="white">
<path fill-rule="evenodd" clip-rule="evenodd" d="M931.829 225.416L931.135 183L901.429 220.355C894.33 219.685 887.049 219.337 879.63 219.337C804.171 219.337 743 255.353 743 299.782C743 344.211 804.171 380.228 879.63 380.228C955.089 380.228 1016.26 344.211 1016.26 299.782C1016.26 266.238 981.391 237.489 931.829 225.416Z"/>
</mask>
<path fill-rule="evenodd" clip-rule="evenodd" d="M931.829 225.416L931.135 183L901.429 220.355C894.33 219.685 887.049 219.337 879.63 219.337C804.171 219.337 743 255.353 743 299.782C743 344.211 804.171 380.228 879.63 380.228C955.089 380.228 1016.26 344.211 1016.26 299.782C1016.26 266.238 981.391 237.489 931.829 225.416Z" fill="white"/>
<path d="M931.135 183L933.134 182.967L933.043 177.387L929.569 181.755L931.135 183ZM931.829 225.416L929.829 225.449L929.855 226.994L931.356 227.359L931.829 225.416ZM901.429 220.355L901.241 222.346L902.32 222.448L902.994 221.6L901.429 220.355ZM929.135 183.033L929.829 225.449L933.829 225.383L933.134 182.967L929.135 183.033ZM902.994 221.6L932.7 184.245L929.569 181.755L899.863 219.11L902.994 221.6ZM879.63 221.337C886.987 221.337 894.205 221.682 901.241 222.346L901.617 218.364C894.456 217.688 887.112 217.337 879.63 217.337V221.337ZM745 299.782C745 278.565 759.619 258.996 784.033 244.622C808.4 230.275 842.194 221.337 879.63 221.337V217.337C841.607 217.337 807.086 226.407 782.003 241.175C756.966 255.917 741 276.571 741 299.782H745ZM879.63 378.228C842.194 378.228 808.4 369.29 784.033 354.943C759.619 340.569 745 321 745 299.782H741C741 322.994 756.966 343.648 782.003 358.39C807.086 373.158 841.607 382.228 879.63 382.228V378.228ZM1014.26 299.782C1014.26 321 999.641 340.569 975.228 354.943C950.86 369.29 917.066 378.228 879.63 378.228V382.228C917.653 382.228 952.174 373.158 977.257 358.39C1002.29 343.648 1018.26 322.994 1018.26 299.782H1014.26ZM931.356 227.359C955.907 233.34 976.705 243.426 991.323 256.061C1005.94 268.692 1014.26 283.755 1014.26 299.782H1018.26C1018.26 282.265 1009.15 266.182 993.938 253.035C978.73 239.89 957.312 229.565 932.302 223.473L931.356 227.359Z" fill="black" mask="url(#path-13-inside-1)"/>
<path d="M785.141 285.208L790.085 298.888H790.133C790.197 298.696 790.277 297.896 790.373 296.488L791.957 285.208H796.037L792.965 307H788.885L783.797 293.272C783.765 293.496 783.733 293.832 783.701 294.28C783.669 294.728 783.605 295.208 783.509 295.72L781.973 307H777.941L781.013 285.208H785.141ZM804.234 304.168C805.194 304.168 805.946 303.72 806.49 302.824C807.066 301.928 807.482 300.488 807.738 298.504C808.026 296.488 808.01 295.048 807.69 294.184C807.37 293.32 806.746 292.888 805.818 292.888C804.89 292.888 804.154 293.32 803.61 294.184C803.066 295.048 802.65 296.488 802.362 298.504C802.106 300.52 802.122 301.976 802.41 302.872C802.698 303.736 803.306 304.168 804.234 304.168ZM812.442 294.424C812.634 295.544 812.602 296.904 812.346 298.504C812.122 300.104 811.754 301.464 811.242 302.584C810.762 303.704 810.154 304.632 809.418 305.368C808.042 306.744 806.17 307.432 803.802 307.432C800.282 307.432 798.25 305.816 797.706 302.584C797.514 301.464 797.546 300.088 797.802 298.456C798.154 295.448 799.13 293.192 800.73 291.688C802.17 290.312 804.01 289.624 806.25 289.624C809.834 289.624 811.898 291.224 812.442 294.424ZM816.13 290.008H820.066L819.874 292.264C820.034 292.136 820.242 291.928 820.498 291.64C820.786 291.32 821.122 291.016 821.506 290.728C822.498 289.992 823.506 289.624 824.53 289.624C825.554 289.624 826.322 289.816 826.834 290.2C827.346 290.552 827.666 291.224 827.794 292.216C828.434 291.288 829.458 290.52 830.866 289.912C831.378 289.72 831.922 289.624 832.498 289.624C833.938 289.624 834.914 290.072 835.426 290.968C835.938 291.864 836.05 293.368 835.762 295.48L834.226 307H829.762L831.25 295.864C831.41 295.128 831.426 294.552 831.298 294.136C831.17 293.72 830.818 293.512 830.242 293.512C829.762 293.512 829.314 293.688 828.898 294.04C828.258 294.552 827.858 295 827.698 295.384L826.114 307H821.794L823.378 295.864C823.506 295.128 823.506 294.552 823.378 294.136C823.25 293.72 822.882 293.512 822.274 293.512C821.762 293.512 821.314 293.688 820.93 294.04C820.29 294.616 819.906 295.064 819.778 295.384L818.146 307H813.73L816.13 290.008ZM851.321 290.008H855.257L855.065 292.168H855.161C855.321 292.072 855.545 291.88 855.833 291.592C856.153 291.304 856.553 291.016 857.033 290.728C858.217 289.992 859.385 289.624 860.537 289.624C862.137 289.624 863.193 290.104 863.705 291.064C864.217 292.024 864.329 293.512 864.041 295.528L862.409 307H858.041L859.433 296.632C859.593 295.416 859.577 294.6 859.385 294.184C859.193 293.736 858.761 293.512 858.089 293.512C857.513 293.512 856.985 293.688 856.505 294.04C855.609 294.744 855.113 295.192 855.017 295.384L853.385 307H848.921L851.321 290.008ZM872.331 304.168C873.291 304.168 874.043 303.72 874.587 302.824C875.163 301.928 875.579 300.488 875.835 298.504C876.123 296.488 876.107 295.048 875.787 294.184C875.467 293.32 874.843 292.888 873.915 292.888C872.987 292.888 872.251 293.32 871.707 294.184C871.163 295.048 870.747 296.488 870.459 298.504C870.203 300.52 870.219 301.976 870.507 302.872C870.795 303.736 871.403 304.168 872.331 304.168ZM880.539 294.424C880.731 295.544 880.699 296.904 880.443 298.504C880.219 300.104 879.851 301.464 879.339 302.584C878.859 303.704 878.251 304.632 877.515 305.368C876.139 306.744 874.267 307.432 871.899 307.432C868.379 307.432 866.347 305.816 865.803 302.584C865.611 301.464 865.643 300.088 865.899 298.456C866.251 295.448 867.227 293.192 868.827 291.688C870.267 290.312 872.107 289.624 874.347 289.624C877.931 289.624 879.995 291.224 880.539 294.424ZM884.228 290.008H888.164L887.972 292.264C888.132 292.136 888.34 291.928 888.596 291.64C888.884 291.32 889.22 291.016 889.604 290.728C890.596 289.992 891.604 289.624 892.628 289.624C893.652 289.624 894.42 289.816 894.932 290.2C895.444 290.552 895.764 291.224 895.892 292.216C896.532 291.288 897.556 290.52 898.964 289.912C899.476 289.72 900.02 289.624 900.596 289.624C902.036 289.624 903.012 290.072 903.524 290.968C904.036 291.864 904.148 293.368 903.86 295.48L902.324 307H897.86L899.348 295.864C899.508 295.128 899.524 294.552 899.396 294.136C899.268 293.72 898.916 293.512 898.34 293.512C897.86 293.512 897.412 293.688 896.996 294.04C896.356 294.552 895.956 295 895.796 295.384L894.212 307H889.892L891.476 295.864C891.604 295.128 891.604 294.552 891.476 294.136C891.348 293.72 890.98 293.512 890.372 293.512C889.86 293.512 889.412 293.688 889.028 294.04C888.388 294.616 888.004 295.064 887.876 295.384L886.244 307H881.828L884.228 290.008ZM919.419 290.008H923.355L923.163 292.168H923.259C923.419 292.072 923.643 291.88 923.931 291.592C924.251 291.304 924.651 291.016 925.131 290.728C926.315 289.992 927.483 289.624 928.635 289.624C930.235 289.624 931.291 290.104 931.803 291.064C932.315 292.024 932.427 293.512 932.139 295.528L930.507 307H926.139L927.531 296.632C927.691 295.416 927.675 294.6 927.483 294.184C927.291 293.736 926.859 293.512 926.187 293.512C925.611 293.512 925.083 293.688 924.603 294.04C923.707 294.744 923.211 295.192 923.115 295.384L921.483 307H917.019L919.419 290.008ZM940.429 304.168C941.389 304.168 942.141 303.72 942.685 302.824C943.261 301.928 943.677 300.488 943.933 298.504C944.221 296.488 944.205 295.048 943.885 294.184C943.565 293.32 942.941 292.888 942.013 292.888C941.085 292.888 940.349 293.32 939.805 294.184C939.261 295.048 938.845 296.488 938.557 298.504C938.301 300.52 938.317 301.976 938.605 302.872C938.893 303.736 939.501 304.168 940.429 304.168ZM948.637 294.424C948.829 295.544 948.797 296.904 948.541 298.504C948.317 300.104 947.949 301.464 947.437 302.584C946.957 303.704 946.349 304.632 945.613 305.368C944.237 306.744 942.365 307.432 939.997 307.432C936.477 307.432 934.445 305.816 933.901 302.584C933.709 301.464 933.741 300.088 933.997 298.456C934.349 295.448 935.325 293.192 936.925 291.688C938.365 290.312 940.205 289.624 942.445 289.624C946.029 289.624 948.093 291.224 948.637 294.424ZM952.325 290.008H956.261L956.069 292.264C956.229 292.136 956.437 291.928 956.693 291.64C956.981 291.32 957.317 291.016 957.701 290.728C958.693 289.992 959.701 289.624 960.725 289.624C961.749 289.624 962.517 289.816 963.029 290.2C963.541 290.552 963.861 291.224 963.989 292.216C964.629 291.288 965.653 290.52 967.061 289.912C967.573 289.72 968.117 289.624 968.693 289.624C970.133 289.624 971.109 290.072 971.621 290.968C972.133 291.864 972.245 293.368 971.957 295.48L970.421 307H965.957L967.445 295.864C967.605 295.128 967.621 294.552 967.493 294.136C967.365 293.72 967.013 293.512 966.437 293.512C965.957 293.512 965.509 293.688 965.093 294.04C964.453 294.552 964.053 295 963.893 295.384L962.309 307H957.989L959.573 295.864C959.701 295.128 959.701 294.552 959.573 294.136C959.445 293.72 959.077 293.512 958.469 293.512C957.957 293.512 957.509 293.688 957.125 294.04C956.485 294.616 956.101 295.064 955.973 295.384L954.341 307H949.925L952.325 290.008ZM976.271 301.768C976.975 301.768 977.519 302.024 977.903 302.536C978.319 303.016 978.463 303.688 978.335 304.552C978.239 305.384 977.919 306.056 977.375 306.568C976.831 307.08 976.191 307.336 975.455 307.336C974.751 307.336 974.191 307.08 973.775 306.568C973.391 306.056 973.247 305.384 973.343 304.552C973.503 303.688 973.855 303.016 974.399 302.536C974.943 302.024 975.567 301.768 976.271 301.768ZM978.767 298.216H974.831L976.319 283.576H981.311L978.767 298.216Z" fill="black"/>
<rect y="645" width="1016" height="59" fill="white"/>
<g filter="url(#filter0_d)">
<rect x="164" y="661" width="688" height="30" fill="url(#paint0_linear)"/>
<rect x="164.5" y="661.5" width="687" height="29" stroke="black" stroke-opacity="0.2"/>
</g>
<path d="M884.547 685H882.344V677.547C882.344 676.984 882.316 676.441 882.262 675.918C882.215 675.395 882.109 674.977 881.945 674.664C881.766 674.328 881.508 674.074 881.172 673.902C880.836 673.73 880.352 673.645 879.719 673.645C879.102 673.645 878.484 673.801 877.867 674.113C877.25 674.418 876.633 674.809 876.016 675.285C876.039 675.465 876.059 675.676 876.074 675.918C876.09 676.152 876.098 676.387 876.098 676.621V685H873.895V677.547C873.895 676.969 873.867 676.422 873.812 675.906C873.766 675.383 873.66 674.965 873.496 674.652C873.316 674.316 873.059 674.066 872.723 673.902C872.387 673.73 871.902 673.645 871.27 673.645C870.668 673.645 870.062 673.793 869.453 674.09C868.852 674.387 868.25 674.766 867.648 675.227V685H865.445V671.91H867.648V673.363C868.336 672.793 869.02 672.348 869.699 672.027C870.387 671.707 871.117 671.547 871.891 671.547C872.781 671.547 873.535 671.734 874.152 672.109C874.777 672.484 875.242 673.004 875.547 673.668C876.438 672.918 877.25 672.379 877.984 672.051C878.719 671.715 879.504 671.547 880.34 671.547C881.777 671.547 882.836 671.984 883.516 672.859C884.203 673.727 884.547 674.941 884.547 676.504V685ZM899.945 678.461C899.945 680.594 899.398 682.277 898.305 683.512C897.211 684.746 895.746 685.363 893.91 685.363C892.059 685.363 890.586 684.746 889.492 683.512C888.406 682.277 887.863 680.594 887.863 678.461C887.863 676.328 888.406 674.645 889.492 673.41C890.586 672.168 892.059 671.547 893.91 671.547C895.746 671.547 897.211 672.168 898.305 673.41C899.398 674.645 899.945 676.328 899.945 678.461ZM897.672 678.461C897.672 676.766 897.34 675.508 896.676 674.688C896.012 673.859 895.09 673.445 893.91 673.445C892.715 673.445 891.785 673.859 891.121 674.688C890.465 675.508 890.137 676.766 890.137 678.461C890.137 680.102 890.469 681.348 891.133 682.199C891.797 683.043 892.723 683.465 893.91 683.465C895.082 683.465 896 683.047 896.664 682.211C897.336 681.367 897.672 680.117 897.672 678.461ZM911.535 674.312H911.418C911.09 674.234 910.77 674.18 910.457 674.148C910.152 674.109 909.789 674.09 909.367 674.09C908.688 674.09 908.031 674.242 907.398 674.547C906.766 674.844 906.156 675.23 905.57 675.707V685H903.367V671.91H905.57V673.844C906.445 673.141 907.215 672.645 907.879 672.355C908.551 672.059 909.234 671.91 909.93 671.91C910.312 671.91 910.59 671.922 910.762 671.945C910.934 671.961 911.191 671.996 911.535 672.051V674.312ZM924.566 678.684H914.922C914.922 679.488 915.043 680.191 915.285 680.793C915.527 681.387 915.859 681.875 916.281 682.258C916.688 682.633 917.168 682.914 917.723 683.102C918.285 683.289 918.902 683.383 919.574 683.383C920.465 683.383 921.359 683.207 922.258 682.855C923.164 682.496 923.809 682.145 924.191 681.801H924.309V684.203C923.566 684.516 922.809 684.777 922.035 684.988C921.262 685.199 920.449 685.305 919.598 685.305C917.426 685.305 915.73 684.719 914.512 683.547C913.293 682.367 912.684 680.695 912.684 678.531C912.684 676.391 913.266 674.691 914.43 673.434C915.602 672.176 917.141 671.547 919.047 671.547C920.812 671.547 922.172 672.062 923.125 673.094C924.086 674.125 924.566 675.59 924.566 677.488V678.684ZM922.422 676.996C922.414 675.84 922.121 674.945 921.543 674.312C920.973 673.68 920.102 673.363 918.93 673.363C917.75 673.363 916.809 673.711 916.105 674.406C915.41 675.102 915.016 675.965 914.922 676.996H922.422ZM943.387 668.898H943.27C943.027 668.828 942.711 668.758 942.32 668.688C941.93 668.609 941.586 668.57 941.289 668.57C940.344 668.57 939.656 668.781 939.227 669.203C938.805 669.617 938.594 670.371 938.594 671.465V671.91H942.566V673.762H938.664V685H936.461V673.762H934.973V671.91H936.461V671.477C936.461 669.922 936.848 668.73 937.621 667.902C938.395 667.066 939.512 666.648 940.973 666.648C941.465 666.648 941.906 666.672 942.297 666.719C942.695 666.766 943.059 666.82 943.387 666.883V668.898ZM955.938 678.461C955.938 680.594 955.391 682.277 954.297 683.512C953.203 684.746 951.738 685.363 949.902 685.363C948.051 685.363 946.578 684.746 945.484 683.512C944.398 682.277 943.855 680.594 943.855 678.461C943.855 676.328 944.398 674.645 945.484 673.41C946.578 672.168 948.051 671.547 949.902 671.547C951.738 671.547 953.203 672.168 954.297 673.41C955.391 674.645 955.938 676.328 955.938 678.461ZM953.664 678.461C953.664 676.766 953.332 675.508 952.668 674.688C952.004 673.859 951.082 673.445 949.902 673.445C948.707 673.445 947.777 673.859 947.113 674.688C946.457 675.508 946.129 676.766 946.129 678.461C946.129 680.102 946.461 681.348 947.125 682.199C947.789 683.043 948.715 683.465 949.902 683.465C951.074 683.465 951.992 683.047 952.656 682.211C953.328 681.367 953.664 680.117 953.664 678.461ZM970.516 678.461C970.516 680.594 969.969 682.277 968.875 683.512C967.781 684.746 966.316 685.363 964.48 685.363C962.629 685.363 961.156 684.746 960.062 683.512C958.977 682.277 958.434 680.594 958.434 678.461C958.434 676.328 958.977 674.645 960.062 673.41C961.156 672.168 962.629 671.547 964.48 671.547C966.316 671.547 967.781 672.168 968.875 673.41C969.969 674.645 970.516 676.328 970.516 678.461ZM968.242 678.461C968.242 676.766 967.91 675.508 967.246 674.688C966.582 673.859 965.66 673.445 964.48 673.445C963.285 673.445 962.355 673.859 961.691 674.688C961.035 675.508 960.707 676.766 960.707 678.461C960.707 680.102 961.039 681.348 961.703 682.199C962.367 683.043 963.293 683.465 964.48 683.465C965.652 683.465 966.57 683.047 967.234 682.211C967.906 681.367 968.242 680.117 968.242 678.461ZM984.555 685H982.352V683.629C981.719 684.176 981.059 684.602 980.371 684.906C979.684 685.211 978.938 685.363 978.133 685.363C976.57 685.363 975.328 684.762 974.406 683.559C973.492 682.355 973.035 680.688 973.035 678.555C973.035 677.445 973.191 676.457 973.504 675.59C973.824 674.723 974.254 673.984 974.793 673.375C975.324 672.781 975.941 672.328 976.645 672.016C977.355 671.703 978.09 671.547 978.848 671.547C979.535 671.547 980.145 671.621 980.676 671.77C981.207 671.91 981.766 672.133 982.352 672.438V666.766H984.555V685ZM982.352 681.777V674.266C981.758 674 981.227 673.816 980.758 673.715C980.289 673.613 979.777 673.562 979.223 673.562C977.988 673.562 977.027 673.992 976.34 674.852C975.652 675.711 975.309 676.93 975.309 678.508C975.309 680.062 975.574 681.246 976.105 682.059C976.637 682.863 977.488 683.266 978.66 683.266C979.285 683.266 979.918 683.129 980.559 682.855C981.199 682.574 981.797 682.215 982.352 681.777Z" fill="black"/>
<path d="M43.4453 685H41.2422V666.766H43.4453V685ZM58.7617 678.684H49.1172C49.1172 679.488 49.2383 680.191 49.4805 680.793C49.7227 681.387 50.0547 681.875 50.4766 682.258C50.8828 682.633 51.3633 682.914 51.918 683.102C52.4805 683.289 53.0977 683.383 53.7695 683.383C54.6602 683.383 55.5547 683.207 56.4531 682.855C57.3594 682.496 58.0039 682.145 58.3867 681.801H58.5039V684.203C57.7617 684.516 57.0039 684.777 56.2305 684.988C55.457 685.199 54.6445 685.305 53.793 685.305C51.6211 685.305 49.9258 684.719 48.707 683.547C47.4883 682.367 46.8789 680.695 46.8789 678.531C46.8789 676.391 47.4609 674.691 48.625 673.434C49.7969 672.176 51.3359 671.547 53.2422 671.547C55.0078 671.547 56.3672 672.062 57.3203 673.094C58.2812 674.125 58.7617 675.59 58.7617 677.488V678.684ZM56.6172 676.996C56.6094 675.84 56.3164 674.945 55.7383 674.312C55.168 673.68 54.2969 673.363 53.125 673.363C51.9453 673.363 51.0039 673.711 50.3008 674.406C49.6055 675.102 49.2109 675.965 49.1172 676.996H56.6172ZM71.4531 681.227C71.4531 682.422 70.957 683.402 69.9648 684.168C68.9805 684.934 67.6328 685.316 65.9219 685.316C64.9531 685.316 64.0625 685.203 63.25 684.977C62.4453 684.742 61.7695 684.488 61.2227 684.215V681.742H61.3398C62.0352 682.266 62.8086 682.684 63.6602 682.996C64.5117 683.301 65.3281 683.453 66.1094 683.453C67.0781 683.453 67.8359 683.297 68.3828 682.984C68.9297 682.672 69.2031 682.18 69.2031 681.508C69.2031 680.992 69.0547 680.602 68.7578 680.336C68.4609 680.07 67.8906 679.844 67.0469 679.656C66.7344 679.586 66.3242 679.504 65.8164 679.41C65.3164 679.316 64.8594 679.215 64.4453 679.105C63.2969 678.801 62.4805 678.355 61.9961 677.77C61.5195 677.176 61.2812 676.449 61.2812 675.59C61.2812 675.051 61.3906 674.543 61.6094 674.066C61.8359 673.59 62.1758 673.164 62.6289 672.789C63.0664 672.422 63.6211 672.133 64.293 671.922C64.9727 671.703 65.7305 671.594 66.5664 671.594C67.3477 671.594 68.1367 671.691 68.9336 671.887C69.7383 672.074 70.4062 672.305 70.9375 672.578V674.934H70.8203C70.2578 674.52 69.5742 674.172 68.7695 673.891C67.9648 673.602 67.1758 673.457 66.4023 673.457C65.5977 673.457 64.918 673.613 64.3633 673.926C63.8086 674.23 63.5312 674.688 63.5312 675.297C63.5312 675.836 63.6992 676.242 64.0352 676.516C64.3633 676.789 64.8945 677.012 65.6289 677.184C66.0352 677.277 66.4883 677.371 66.9883 677.465C67.4961 677.559 67.918 677.645 68.2539 677.723C69.2773 677.957 70.0664 678.359 70.6211 678.93C71.1758 679.508 71.4531 680.273 71.4531 681.227ZM83.9688 681.227C83.9688 682.422 83.4727 683.402 82.4805 684.168C81.4961 684.934 80.1484 685.316 78.4375 685.316C77.4688 685.316 76.5781 685.203 75.7656 684.977C74.9609 684.742 74.2852 684.488 73.7383 684.215V681.742H73.8555C74.5508 682.266 75.3242 682.684 76.1758 682.996C77.0273 683.301 77.8438 683.453 78.625 683.453C79.5938 683.453 80.3516 683.297 80.8984 682.984C81.4453 682.672 81.7188 682.18 81.7188 681.508C81.7188 680.992 81.5703 680.602 81.2734 680.336C80.9766 680.07 80.4062 679.844 79.5625 679.656C79.25 679.586 78.8398 679.504 78.332 679.41C77.832 679.316 77.375 679.215 76.9609 679.105C75.8125 678.801 74.9961 678.355 74.5117 677.77C74.0352 677.176 73.7969 676.449 73.7969 675.59C73.7969 675.051 73.9062 674.543 74.125 674.066C74.3516 673.59 74.6914 673.164 75.1445 672.789C75.582 672.422 76.1367 672.133 76.8086 671.922C77.4883 671.703 78.2461 671.594 79.082 671.594C79.8633 671.594 80.6523 671.691 81.4492 671.887C82.2539 672.074 82.9219 672.305 83.4531 672.578V674.934H83.3359C82.7734 674.52 82.0898 674.172 81.2852 673.891C80.4805 673.602 79.6914 673.457 78.918 673.457C78.1133 673.457 77.4336 673.613 76.8789 673.926C76.3242 674.23 76.0469 674.688 76.0469 675.297C76.0469 675.836 76.2148 676.242 76.5508 676.516C76.8789 676.789 77.4102 677.012 78.1445 677.184C78.5508 677.277 79.0039 677.371 79.5039 677.465C80.0117 677.559 80.4336 677.645 80.7695 677.723C81.793 677.957 82.582 678.359 83.1367 678.93C83.6914 679.508 83.9688 680.273 83.9688 681.227ZM102.613 668.898H102.496C102.254 668.828 101.938 668.758 101.547 668.688C101.156 668.609 100.812 668.57 100.516 668.57C99.5703 668.57 98.8828 668.781 98.4531 669.203C98.0312 669.617 97.8203 670.371 97.8203 671.465V671.91H101.793V673.762H97.8906V685H95.6875V673.762H94.1992V671.91H95.6875V671.477C95.6875 669.922 96.0742 668.73 96.8477 667.902C97.6211 667.066 98.7383 666.648 100.199 666.648C100.691 666.648 101.133 666.672 101.523 666.719C101.922 666.766 102.285 666.82 102.613 666.883V668.898ZM115.164 678.461C115.164 680.594 114.617 682.277 113.523 683.512C112.43 684.746 110.965 685.363 109.129 685.363C107.277 685.363 105.805 684.746 104.711 683.512C103.625 682.277 103.082 680.594 103.082 678.461C103.082 676.328 103.625 674.645 104.711 673.41C105.805 672.168 107.277 671.547 109.129 671.547C110.965 671.547 112.43 672.168 113.523 673.41C114.617 674.645 115.164 676.328 115.164 678.461ZM112.891 678.461C112.891 676.766 112.559 675.508 111.895 674.688C111.23 673.859 110.309 673.445 109.129 673.445C107.934 673.445 107.004 673.859 106.34 674.688C105.684 675.508 105.355 676.766 105.355 678.461C105.355 680.102 105.688 681.348 106.352 682.199C107.016 683.043 107.941 683.465 109.129 683.465C110.301 683.465 111.219 683.047 111.883 682.211C112.555 681.367 112.891 680.117 112.891 678.461ZM129.742 678.461C129.742 680.594 129.195 682.277 128.102 683.512C127.008 684.746 125.543 685.363 123.707 685.363C121.855 685.363 120.383 684.746 119.289 683.512C118.203 682.277 117.66 680.594 117.66 678.461C117.66 676.328 118.203 674.645 119.289 673.41C120.383 672.168 121.855 671.547 123.707 671.547C125.543 671.547 127.008 672.168 128.102 673.41C129.195 674.645 129.742 676.328 129.742 678.461ZM127.469 678.461C127.469 676.766 127.137 675.508 126.473 674.688C125.809 673.859 124.887 673.445 123.707 673.445C122.512 673.445 121.582 673.859 120.918 674.688C120.262 675.508 119.934 676.766 119.934 678.461C119.934 680.102 120.266 681.348 120.93 682.199C121.594 683.043 122.52 683.465 123.707 683.465C124.879 683.465 125.797 683.047 126.461 682.211C127.133 681.367 127.469 680.117 127.469 678.461ZM143.781 685H141.578V683.629C140.945 684.176 140.285 684.602 139.598 684.906C138.91 685.211 138.164 685.363 137.359 685.363C135.797 685.363 134.555 684.762 133.633 683.559C132.719 682.355 132.262 680.688 132.262 678.555C132.262 677.445 132.418 676.457 132.73 675.59C133.051 674.723 133.48 673.984 134.02 673.375C134.551 672.781 135.168 672.328 135.871 672.016C136.582 671.703 137.316 671.547 138.074 671.547C138.762 671.547 139.371 671.621 139.902 671.77C140.434 671.91 140.992 672.133 141.578 672.438V666.766H143.781V685ZM141.578 681.777V674.266C140.984 674 140.453 673.816 139.984 673.715C139.516 673.613 139.004 673.562 138.449 673.562C137.215 673.562 136.254 673.992 135.566 674.852C134.879 675.711 134.535 676.93 134.535 678.508C134.535 680.062 134.801 681.246 135.332 682.059C135.863 682.863 136.715 683.266 137.887 683.266C138.512 683.266 139.145 683.129 139.785 682.855C140.426 682.574 141.023 682.215 141.578 681.777Z" fill="black"/>
<path opacity="0.2" d="M0 645H1016" stroke="black"/>
</g>
<defs>
<filter id="filter0_d" x="162" y="661" width="692" height="35" filterUnits="userSpaceOnUse" color-interpolation-filters="sRGB">
<feFlood flood-opacity="0" result="BackgroundImageFix"/>
<feColorMatrix in="SourceAlpha" type="matrix" values="0 0 0 0 0 0 0 0 0 0 0 0 0 0 0 0 0 0 127 0"/>
<feOffset dy="3"/>
<feGaussianBlur stdDeviation="1"/>
<feColorMatrix type="matrix" values="0 0 0 0 0 0 0 0 0 0 0 0 0 0 0 0 0 0 0.11 0"/>
<feBlend mode="normal" in2="BackgroundImageFix" result="effect1_dropShadow"/>
<feBlend mode="normal" in="SourceGraphic" in2="effect1_dropShadow" result="shape"/>
</filter>
<linearGradient id="paint0_linear" x1="164" y1="691" x2="852" y2="691" gradientUnits="userSpaceOnUse">
<stop stop-color="white"/>
<stop offset="0.25" stop-color="#E6EFD6"/>
<stop offset="0.520833" stop-color="#D3E3B8"/>
<stop offset="0.765625" stop-color="#C5DAA1"/>
<stop offset="1" stop-color="#BAD490"/>
</linearGradient>
<clipPath id="clip0">
<rect width="1016" height="704" fill="white"/>
</clipPath>
</defs>
</svg>
