<svg width="256" height="256" viewBox="0 0 256 256" fill="none" xmlns="http://www.w3.org/2000/svg">
<path d="M128 20C68.3532 20 20 68.3532 20 128C20 187.647 68.3532 236 128 236C187.647 236 236 187.647 236 128C236 68.3532 187.647 20 128 20ZM103.962 48.0332H117.909V61.9809H103.962V48.0332ZM119.494 48.0332H133.441V61.9809H119.494V48.0332ZM135.026 48.0332H148.939V61.9809H135.026V48.0332ZM150.73 54.2321H158.478V61.9809H150.73V54.2321ZM94.9388 54.5421H102.653V62.2908H94.9388V54.5421ZM88.4643 63.565H102.412V77.5128H88.4643V63.565ZM103.962 63.565H117.909V77.5128H103.962V63.565ZM119.494 63.565H133.441V77.5128H119.494V63.565ZM135.026 63.565H148.939V77.5128H135.026V63.565ZM150.523 63.565H164.471V77.5128H150.523V63.565ZM166.055 63.565H179.968V77.5128H166.055V63.565ZM165.883 79.0281H173.631V86.7768H165.883V79.0281ZM103.962 79.0622H117.909V93.0101H103.962V79.0622ZM119.494 79.0622H133.441V93.0101H119.494V79.0622ZM135.026 79.0622H148.939V93.0101H135.026V79.0622ZM150.523 79.0622H164.471V93.0101H150.523V79.0622ZM95.3176 94.0775H103.066V101.826H95.3176V94.0775ZM91.2194 111.883H102.309V133.097H91.2194V111.883ZM91.2194 135.508H102.309V156.722H91.2194V135.508ZM125.934 135.508V156.722H104.719L125.934 135.508ZM149.559 135.508V156.722H128.344L149.559 135.508ZM173.184 135.508V156.722H151.969L173.184 135.508ZM91.2194 159.133H102.309V180.347H91.2194V159.133ZM104.719 159.133H125.934V180.347H104.719V159.133ZM128.344 159.133H149.559V180.347H128.344V159.133ZM151.969 159.133H173.184V180.347H151.969V159.133ZM91.2194 182.758H102.309V203.972H91.2194V182.758ZM104.719 182.758H125.934V203.972H104.719V182.758ZM128.344 182.758H149.559V203.972H128.344V182.758ZM151.969 182.758H173.184V203.972H151.969V182.758Z" fill="#301C09"/>
<path d="M124.645 0.0488369C70.8536 0.559647 20.4501 39.1977 5.44754 90.7366C-9.07516 137.594 6.06417 192.151 43.4111 224.193C81.0847 257.965 139.377 265.887 184.6 242.924C226.755 222.222 255.797 177.232 255.971 130.095C257.066 80.6147 227.06 31.9592 181.616 11.7985C163.91 3.56162 144.249 -0.498381 124.645 0.0488369ZM128.574 8.96287C180.585 8.44113 229.547 46.0747 242.727 96.2702C254.832 139.43 240.293 188.76 206.281 217.715C171.714 248.347 118.593 256.14 76.8862 235.613C36.2122 216.451 8.20903 172.948 8.93384 127.689C8.79271 82.074 36.9218 38.0626 78.6449 19.6728C94.2404 12.511 111.395 8.89579 128.574 8.96287V8.96287Z" fill="#301C09"/>
</svg>
